if (_typeface_js && _typeface_js.loadFace) _typeface_js.loadFace({"glyphs":{"S":{"x_min":27.78125,"x_max":732,"ha":767,"o":"m 624 488 q 700 408 669 459 q 732 271 732 356 q 677 116 732 186 q 373 -13 577 -13 q 197 11 284 -13 q 69 63 111 37 l 27 88 l 87 208 q 268 159 187 159 q 348 211 348 159 q 317 265 348 240 q 240 315 286 291 q 150 370 195 338 q 74 457 105 401 q 43 588 43 513 q 145 791 43 722 q 391 861 247 861 q 553 840 477 861 q 661 798 629 819 l 694 777 l 640 659 q 497 690 569 690 q 426 636 426 690 q 457 583 426 607 q 534 538 488 559 q 624 488 579 516 "},"¦":{"x_min":55.5625,"x_max":200.015625,"ha":256,"o":"m 200 479 l 55 479 l 55 958 l 200 958 l 200 479 m 200 -136 l 55 -136 l 55 343 l 200 343 l 200 -136 "},"/":{"x_min":0,"x_max":552.828125,"ha":553,"o":"m 0 -120 l 348 920 l 552 920 l 200 -120 l 0 -120 "},"y":{"x_min":41.671875,"x_max":812.5625,"ha":847,"o":"m 523 154 l 523 165 q 502 113 519 141 q 463 65 484 84 q 404 30 443 45 q 304 15 366 15 q 186 43 241 15 q 100 122 130 72 q 41 327 41 215 q 73 658 41 438 l 343 658 l 343 358 q 433 205 343 205 q 493 241 473 205 q 512 333 512 277 q 512 348 512 340 l 500 658 l 812 658 l 793 231 q 779 77 788 141 q 746 -53 770 13 q 683 -162 722 -120 q 415 -256 593 -256 q 180 -179 290 -256 l 168 -170 l 226 -51 q 351 -81 293 -81 q 477 -20 431 -81 q 523 154 523 41 "},"ĸ":{"x_min":41.671875,"x_max":794.515625,"ha":781,"o":"m 41 658 l 352 658 l 345 473 l 486 658 l 766 658 l 570 383 l 794 0 l 568 0 q 334 226 402 159 l 325 0 l 69 0 l 41 658 "},"Á":{"x_min":13.890625,"x_max":977.859375,"ha":964,"o":"m 673 0 l 618 140 l 263 140 l 211 0 l 13 0 l 248 841 l 743 841 l 977 0 l 673 0 m 547 320 l 437 598 l 331 320 l 547 320 m 509 1070 q 586 1122 541 1122 q 658 1096 632 1122 q 684 1027 684 1070 q 634 954 684 983 l 554 907 l 409 907 l 509 1070 "},"g":{"x_min":34.71875,"x_max":815.34375,"ha":850,"o":"m 438 -256 q 305 -236 370 -256 q 209 -197 240 -216 l 179 -176 l 240 -51 q 351 -80 300 -80 q 490 -20 445 -80 q 534 116 534 38 q 533 144 534 130 q 319 13 468 13 q 111 93 188 13 q 34 344 34 172 q 61 509 34 440 q 133 613 88 579 q 315 677 215 677 q 433 644 384 677 q 501 580 473 615 l 493 658 l 815 658 l 791 118 q 438 -256 773 -256 m 404 490 q 322 337 322 490 q 327 283 322 309 q 353 230 331 256 q 415 204 375 204 q 475 243 455 204 q 495 337 495 281 q 404 490 495 490 "},"²":{"x_min":20.828125,"x_max":452.8125,"ha":488,"o":"m 452 384 l 20 384 l 20 468 q 63 512 30 479 q 115 568 95 545 q 158 620 134 590 q 208 725 208 683 q 144 790 208 790 q 63 772 105 790 l 38 866 q 225 920 131 920 q 381 883 318 920 q 444 762 444 845 q 241 513 443 636 l 247 502 l 452 544 l 452 384 "},"–":{"x_min":0,"x_max":576.4375,"ha":576,"o":"m 0 343 l 0 479 l 576 479 l 576 343 l 0 343 "},"ë":{"x_min":34.71875,"x_max":719.5,"ha":754,"o":"m 469 159 q 613 211 554 159 l 700 106 q 647 57 677 80 q 550 10 616 34 q 404 -13 483 -13 q 140 77 247 -13 q 34 344 34 168 q 88 533 34 455 q 394 677 187 677 q 636 614 552 677 q 719 440 719 551 q 650 300 719 354 q 450 247 581 247 q 337 258 390 247 q 381 184 344 208 q 469 159 418 159 m 416 390 q 489 407 462 390 q 516 452 516 425 q 495 498 516 480 q 436 516 473 516 q 366 483 398 516 q 333 404 333 450 q 416 390 369 390 m 444 895 q 518 922 469 922 q 592 895 566 922 q 618 827 618 868 q 593 759 618 786 q 518 733 568 733 q 443 759 468 733 q 419 827 419 786 q 444 895 419 868 m 190 895 q 263 922 215 922 q 338 895 312 922 q 363 827 363 868 q 338 759 363 786 q 263 733 313 733 q 189 759 213 733 q 165 827 165 786 q 190 895 165 868 "},"Î":{"x_min":19.453125,"x_max":480.59375,"ha":507,"o":"m 118 0 l 34 841 l 472 841 l 388 0 l 118 0 m 231 1122 l 268 1122 q 340 1106 313 1122 q 390 1054 368 1090 l 480 907 l 336 907 l 250 993 l 163 907 l 19 907 l 109 1054 q 159 1106 131 1090 q 231 1122 186 1122 "},"e":{"x_min":34.71875,"x_max":719.5,"ha":754,"o":"m 404 -13 q 140 77 247 -13 q 34 344 34 168 q 88 533 34 455 q 394 677 187 677 q 636 614 552 677 q 719 440 719 551 q 650 300 719 354 q 450 247 581 247 q 352 255 395 247 l 337 258 q 381 184 344 208 q 469 159 418 159 q 613 211 554 159 l 700 106 q 647 57 677 80 q 550 10 616 34 q 404 -13 483 -13 m 516 452 q 495 498 516 480 q 436 516 473 516 q 366 483 398 516 q 333 404 333 450 q 413 390 363 390 q 489 407 462 390 q 516 452 516 425 "},"Ã":{"x_min":13.890625,"x_max":977.859375,"ha":964,"o":"m 673 0 l 618 140 l 263 140 l 211 0 l 13 0 l 248 841 l 743 841 l 977 0 l 673 0 m 547 320 l 437 598 l 331 320 l 547 320 m 573 897 q 516 922 541 897 q 478 948 490 948 q 461 944 466 948 l 380 897 l 265 945 l 336 1061 q 420 1112 368 1112 q 467 1095 447 1112 q 501 1066 487 1077 q 533 1065 515 1054 l 613 1112 l 729 1063 l 658 948 q 573 897 626 897 "},"J":{"x_min":0,"x_max":670.890625,"ha":706,"o":"m 308 -13 q 147 13 225 -13 q 36 69 70 41 l 0 97 l 59 216 q 190 179 133 179 q 291 277 291 179 q 251 654 291 293 l 59 677 l 100 841 l 670 841 l 616 284 q 308 -13 587 -13 "},"»":{"x_min":20.828125,"x_max":584.765625,"ha":586,"o":"m 387 322 l 277 566 l 431 566 l 584 322 l 431 77 l 277 77 l 387 322 m 130 322 l 20 566 l 175 566 l 327 322 l 175 77 l 20 77 l 130 322 "},"©":{"x_min":20.828125,"x_max":791.734375,"ha":813,"o":"m 712 531 q 633 734 712 648 q 407 820 554 820 q 181 734 261 820 q 101 532 101 648 q 178 334 101 416 q 406 252 255 252 q 635 334 558 252 q 712 531 712 415 m 234 864 q 406 897 311 897 q 579 864 502 897 q 700 780 655 832 q 791 547 791 675 q 695 281 791 386 q 407 177 598 177 q 118 281 216 177 q 20 547 20 386 q 113 780 20 673 q 234 864 158 832 m 479 641 q 383 536 383 641 q 409 453 383 480 q 477 426 436 426 q 545 443 519 426 l 573 390 q 420 343 511 343 q 274 391 330 343 q 218 537 218 440 q 272 684 218 634 q 418 733 327 733 q 572 686 508 733 l 545 630 q 479 641 515 641 "},"ò":{"x_min":34.71875,"x_max":773.671875,"ha":808,"o":"m 135 68 q 34 331 34 151 q 135 595 34 512 q 404 677 236 677 q 672 595 572 677 q 773 331 773 512 q 672 68 773 151 q 404 -13 572 -13 q 135 68 236 -13 m 345 489 q 329 331 329 441 q 345 174 329 222 q 404 126 362 126 q 462 174 445 126 q 479 331 479 222 q 462 489 479 441 q 404 537 445 537 q 345 489 362 537 m 266 768 q 216 841 216 797 q 243 910 216 884 q 314 936 269 936 q 391 884 359 936 l 491 720 l 347 720 l 266 768 "},"^":{"x_min":41.671875,"x_max":641.71875,"ha":683,"o":"m 259 741 l 423 741 l 641 373 l 477 373 l 341 602 l 205 373 l 41 373 l 259 741 "},"«":{"x_min":1.390625,"x_max":565.328125,"ha":586,"o":"m 308 566 l 198 322 l 308 77 l 154 77 l 1 322 l 154 566 l 308 566 m 565 566 l 455 322 l 565 77 l 411 77 l 258 322 l 411 566 l 565 566 "},"D":{"x_min":34.71875,"x_max":932.015625,"ha":960,"o":"m 395 140 q 544 241 491 140 q 597 454 597 343 q 556 633 597 566 q 452 700 516 700 l 444 700 l 387 140 l 395 140 m 390 0 l 118 0 l 34 841 l 444 841 q 870 672 754 841 q 932 458 932 581 q 390 0 932 0 "},"ł":{"x_min":-30.5625,"x_max":434.75,"ha":414,"o":"m -30 276 l -30 412 l 434 594 l 434 458 l -30 276 m 372 901 l 334 0 l 79 0 l 41 901 l 372 901 "},"ÿ":{"x_min":41.671875,"x_max":812.5625,"ha":847,"o":"m 523 154 l 523 165 q 502 113 519 141 q 463 65 484 84 q 404 30 443 45 q 304 15 366 15 q 186 43 241 15 q 100 122 130 72 q 41 327 41 215 q 73 658 41 438 l 343 658 l 343 358 q 433 205 343 205 q 493 241 473 205 q 512 333 512 277 q 512 348 512 340 l 500 658 l 812 658 l 793 231 q 779 77 788 141 q 746 -53 770 13 q 683 -162 722 -120 q 415 -256 593 -256 q 180 -179 290 -256 l 168 -170 l 226 -51 q 351 -81 293 -81 q 477 -20 431 -81 q 523 154 523 41 m 480 895 q 554 922 505 922 q 628 895 602 922 q 654 827 654 868 q 629 759 654 786 q 554 733 604 733 q 479 759 504 733 q 455 827 455 786 q 480 895 455 868 m 226 895 q 300 922 251 922 q 374 895 348 922 q 400 827 400 868 q 375 759 400 786 q 300 733 350 733 q 225 759 250 733 q 201 827 201 786 q 226 895 201 868 "},"Ł":{"x_min":27.78125,"x_max":698.671875,"ha":726,"o":"m 27 252 l 27 388 l 113 422 l 72 841 l 509 841 l 481 566 l 619 620 l 619 484 l 468 425 l 447 215 l 698 229 l 619 0 l 155 0 l 126 291 l 27 252 "},"í":{"x_min":41.671875,"x_max":395.859375,"ha":438,"o":"m 372 638 l 395 647 l 348 0 l 86 0 l 41 647 q 210 615 120 615 q 372 638 300 615 m 206 884 q 284 936 238 936 q 355 910 329 936 q 381 841 381 884 q 331 768 381 797 l 251 720 l 106 720 l 206 884 "},"ˆ":{"x_min":83.34375,"x_max":544.484375,"ha":565,"o":"m 295 1122 l 331 1122 q 404 1106 377 1122 q 454 1054 431 1090 l 544 907 l 400 907 l 313 993 l 227 907 l 83 907 l 173 1054 q 222 1106 195 1090 q 295 1122 250 1122 "},"w":{"x_min":-13.890625,"x_max":1163.984375,"ha":1192,"o":"m 959 658 l 1163 658 q 1139 413 1163 529 q 1080 226 1115 298 q 950 22 1007 76 l 925 0 l 645 0 l 576 223 q 509 100 547 155 q 447 22 470 44 l 425 0 l 188 0 l -13 658 l 330 658 l 390 243 q 412 268 398 251 q 455 352 426 286 q 498 495 484 418 l 444 658 l 787 658 l 841 244 q 919 383 882 284 q 959 658 959 494 "},"$":{"x_min":20.828125,"x_max":686.171875,"ha":695,"o":"m 373 181 q 337 229 373 208 q 250 272 301 251 q 147 322 198 294 q 59 405 95 351 q 23 533 23 459 q 98 705 23 643 q 287 782 173 768 l 287 859 l 419 859 l 419 782 q 534 759 480 776 q 611 729 588 743 l 634 715 l 583 602 q 402 647 477 647 q 327 595 327 647 q 359 547 327 565 q 432 513 380 534 q 515 477 484 491 q 639 390 593 440 q 686 263 686 340 q 604 75 686 144 q 402 -9 522 5 l 402 -97 l 273 -97 l 273 -9 q 142 22 205 -1 q 50 66 79 45 l 20 86 l 77 200 q 304 130 194 130 q 373 181 373 130 "},"\\":{"x_min":0,"x_max":552.828125,"ha":553,"o":"m 348 -120 l 0 920 l 200 920 l 552 -120 l 348 -120 "},"Ì":{"x_min":34.71875,"x_max":472.265625,"ha":507,"o":"m 118 0 l 34 841 l 472 841 l 388 0 l 118 0 m 136 954 q 86 1027 86 983 q 112 1096 86 1070 q 184 1122 138 1122 q 261 1070 229 1122 l 361 907 l 216 907 l 136 954 "},"µ":{"x_min":27.78125,"x_max":808.390625,"ha":850,"o":"m 340 -237 l 27 -237 l 69 658 l 352 658 l 352 368 q 394 211 352 248 q 429 197 409 197 q 491 246 473 197 q 508 325 508 295 q 508 361 508 354 l 495 658 l 808 658 l 779 0 l 544 0 l 530 118 q 462 38 506 72 q 366 5 418 5 q 340 8 359 5 l 340 -237 "},"Ç":{"x_min":27.78125,"x_max":802.84375,"ha":845,"o":"m 469 861 q 643 832 550 861 q 797 758 737 802 l 738 634 q 604 658 677 658 q 398 419 398 658 q 454 239 398 304 q 591 175 511 175 q 740 208 670 175 l 802 88 q 468 -13 662 -13 q 150 100 273 -13 q 27 427 27 213 q 148 750 27 640 q 469 861 269 861 m 465 -202 q 388 -254 433 -254 q 316 -228 343 -254 q 290 -159 290 -202 q 340 -86 290 -115 l 420 -38 l 565 -38 l 465 -202 "},"’":{"x_min":27.78125,"x_max":237.515625,"ha":265,"o":"m 27 634 l 27 825 q 54 891 27 861 q 132 920 81 920 q 210 891 183 920 q 237 825 237 862 q 194 726 237 788 l 131 634 l 27 634 "},"-":{"x_min":41.671875,"x_max":395.859375,"ha":438,"o":"m 41 343 l 41 479 l 395 479 l 395 343 l 41 343 "},"Q":{"x_min":27.78125,"x_max":1009.796875,"ha":1038,"o":"m 27 434 q 154 747 27 633 q 518 861 281 861 q 882 747 755 861 q 1009 433 1009 633 q 913 128 1009 233 q 652 -2 818 23 q 743 -48 675 -48 q 894 9 812 -48 l 954 -109 q 683 -212 836 -212 q 491 -157 577 -212 q 373 -1 405 -102 q 120 131 212 27 q 27 434 27 236 m 640 420 q 518 701 640 701 q 397 420 397 701 q 518 140 397 140 q 640 420 640 140 "},"M":{"x_min":34.71875,"x_max":1340.390625,"ha":1375,"o":"m 104 0 l 34 841 l 554 841 l 711 429 l 868 841 l 1340 841 l 1270 0 l 986 0 l 936 501 l 744 0 l 519 0 l 327 501 l 286 0 l 104 0 "},"C":{"x_min":27.78125,"x_max":802.84375,"ha":817,"o":"m 469 861 q 643 832 550 861 q 797 758 737 802 l 738 634 q 604 658 677 658 q 398 419 398 658 q 454 239 398 304 q 591 175 511 175 q 740 208 670 175 l 802 88 q 468 -13 662 -13 q 150 100 273 -13 q 27 427 27 213 q 148 750 27 640 q 469 861 269 861 "},"œ":{"x_min":27.78125,"x_max":1168.15625,"ha":1190,"o":"m 852 -13 q 632 44 727 -13 q 385 -13 541 -13 q 128 70 229 -13 q 27 327 27 154 q 122 589 27 501 q 397 677 216 677 q 629 622 537 677 q 860 677 719 677 q 1084 614 1001 677 q 1168 440 1168 551 q 1099 300 1168 354 q 898 247 1030 247 q 800 255 844 247 l 786 258 q 829 184 793 208 q 918 159 866 159 q 1062 211 1002 159 l 1148 106 q 1095 57 1126 80 q 998 10 1065 34 q 852 -13 932 -13 m 483 358 q 463 493 480 450 q 395 537 445 537 q 327 487 344 537 q 311 331 311 437 q 329 176 311 226 q 397 126 347 126 q 465 176 447 126 q 483 330 483 226 l 483 358 m 965 452 q 943 498 965 480 q 884 516 922 516 q 814 483 847 516 q 782 404 782 450 q 861 390 812 390 q 938 407 911 390 q 965 452 965 425 "},"!":{"x_min":43.0625,"x_max":359.75,"ha":403,"o":"m 322 226 q 201 256 275 256 q 80 226 127 256 l 43 841 l 359 841 l 322 226 m 122 157 q 201 186 148 186 q 280 157 254 186 q 306 86 306 129 q 280 14 306 43 q 201 -13 254 -13 q 122 14 148 -13 q 95 86 95 43 q 122 157 95 129 "},"ç":{"x_min":34.71875,"x_max":679.21875,"ha":679,"o":"m 679 97 q 400 -13 575 -13 q 130 79 226 -13 q 34 344 34 173 q 137 596 34 515 q 394 677 240 677 q 520 665 459 677 q 608 638 580 652 l 636 626 l 605 483 q 488 500 548 500 q 378 461 427 500 q 329 344 329 423 q 466 166 329 166 q 536 175 502 166 q 584 194 569 184 l 600 202 l 679 97 m 398 -202 q 321 -254 366 -254 q 250 -228 276 -254 q 223 -159 223 -202 q 273 -86 223 -115 l 354 -38 l 498 -38 l 398 -202 "},"Ĵ":{"x_min":0,"x_max":670.890625,"ha":706,"o":"m 291 277 q 251 654 291 293 l 59 677 l 100 841 l 670 841 l 616 284 q 308 -13 587 -13 q 145 16 225 -13 q 39 65 65 47 q 0 97 13 84 q 59 216 0 97 l 80 206 q 190 179 137 179 q 291 277 291 179 m 373 1122 l 409 1122 q 482 1106 455 1122 q 531 1054 509 1090 l 622 907 l 477 907 l 391 993 l 305 907 l 161 907 l 251 1054 q 300 1106 273 1090 q 373 1122 327 1122 "},"È":{"x_min":48.609375,"x_max":752.84375,"ha":774,"o":"m 443 323 q 470 209 443 238 q 538 179 498 179 q 672 201 605 179 l 693 208 l 752 88 q 715 60 740 77 q 603 14 690 43 q 424 -13 516 -13 q 269 12 331 -13 q 173 74 206 38 q 119 168 140 109 q 92 269 98 227 q 81 373 86 311 l 48 841 l 673 841 l 712 675 l 476 654 l 462 519 l 648 519 l 676 388 l 443 330 l 443 323 m 226 954 q 176 1027 176 983 q 202 1096 176 1070 q 274 1122 229 1122 q 351 1070 319 1122 l 451 907 l 306 907 l 226 954 "},"{":{"x_min":13.890625,"x_max":488.921875,"ha":503,"o":"m 427 -256 q 204 -183 275 -256 q 157 -95 173 -152 q 138 11 141 -37 q 134 138 134 61 q 107 236 134 215 q 13 259 80 256 l 40 416 q 115 447 95 418 q 134 553 134 477 q 138 678 134 629 q 157 785 141 727 q 204 875 173 843 q 427 947 275 947 q 466 944 444 947 l 488 812 q 372 770 409 805 q 334 651 334 734 q 341 580 334 623 q 348 516 348 537 q 190 345 348 376 q 348 173 348 315 q 341 109 348 152 q 334 38 334 66 q 372 -79 334 -44 q 488 -122 409 -115 l 466 -254 q 427 -256 444 -256 "},"X":{"x_min":13.890625,"x_max":918.125,"ha":932,"o":"m 263 0 l 13 0 q 247 459 13 286 l 47 841 l 475 841 l 583 633 q 642 724 623 679 q 661 841 661 769 l 911 841 q 851 584 911 694 q 705 402 791 473 l 918 0 l 490 0 l 362 241 q 263 0 263 136 "},"ô":{"x_min":34.71875,"x_max":773.671875,"ha":808,"o":"m 135 68 q 34 331 34 151 q 135 595 34 512 q 404 677 236 677 q 672 595 572 677 q 773 331 773 512 q 672 68 773 151 q 404 -13 572 -13 q 135 68 236 -13 m 345 489 q 329 331 329 441 q 345 174 329 222 q 404 126 362 126 q 462 174 445 126 q 479 331 479 222 q 462 489 479 441 q 404 537 445 537 q 345 489 362 537 m 383 936 l 419 936 q 492 920 465 936 q 541 868 519 904 l 632 720 l 487 720 l 401 807 l 315 720 l 170 720 l 261 868 q 310 920 283 904 q 383 936 337 936 "},"¼":{"x_min":81.953125,"x_max":1272.328125,"ha":1360,"o":"m 216 231 l 162 651 l 88 666 l 81 763 l 434 763 l 379 231 l 216 231 m 355 -120 l 704 920 l 908 920 l 555 -120 l 355 -120 m 919 531 l 1243 531 l 1215 258 l 1272 258 l 1255 133 l 1202 133 l 1188 0 l 1037 0 l 1023 133 l 788 133 l 795 258 l 919 531 m 997 405 l 927 258 l 1011 258 l 997 405 "},"#":{"x_min":41.671875,"x_max":870.90625,"ha":913,"o":"m 295 0 l 148 0 l 187 140 l 41 140 l 80 276 l 225 276 l 259 402 l 105 402 l 144 538 l 297 538 l 336 682 l 484 682 l 444 538 l 576 538 l 615 682 l 763 682 l 723 538 l 870 538 l 833 402 l 686 402 l 651 276 l 807 276 l 769 140 l 613 140 l 575 0 l 427 0 l 466 140 l 334 140 l 295 0 m 406 402 l 372 276 l 504 276 l 538 402 l 406 402 "},"Ê":{"x_min":48.609375,"x_max":752.84375,"ha":774,"o":"m 405 -13 q 269 12 331 -13 q 173 74 206 38 q 119 168 140 109 q 92 269 98 227 q 81 373 86 311 l 48 841 l 673 841 l 712 675 l 476 654 l 462 519 l 648 519 l 676 388 l 443 330 l 443 323 q 470 209 443 238 q 558 179 498 179 q 693 208 618 179 l 752 88 l 738 77 q 632 22 707 52 q 536 -3 594 6 q 405 -13 479 -13 m 365 1122 l 401 1122 q 474 1106 447 1122 q 523 1054 501 1090 l 613 907 l 469 907 l 383 993 l 297 907 l 152 907 l 243 1054 q 292 1106 265 1090 q 365 1122 319 1122 "},")":{"x_min":13.890625,"x_max":423.640625,"ha":479,"o":"m 156 81 q 201 344 201 194 q 156 607 201 494 q 13 877 111 720 l 145 955 q 343 662 263 825 q 423 344 423 500 q 343 26 423 188 q 145 -266 263 -136 l 13 -188 q 156 81 111 -31 "},"Å":{"x_min":13.890625,"x_max":977.859375,"ha":964,"o":"m 673 0 l 618 140 l 263 140 l 211 0 l 13 0 l 248 841 l 743 841 l 977 0 l 673 0 m 547 320 l 437 598 l 331 320 l 547 320 m 502 822 q 605 847 569 822 q 641 937 641 873 q 607 1027 641 1001 q 502 1054 573 1054 l 488 1054 q 384 1027 418 1054 q 350 937 350 1001 q 386 847 350 873 q 488 822 422 822 l 502 822 m 493 908 q 454 918 463 908 q 447 941 447 925 q 457 964 447 958 q 493 970 468 970 l 498 970 q 534 964 523 970 q 544 941 544 958 q 536 916 544 925 q 498 908 527 908 l 493 908 "},"ø":{"x_min":34.71875,"x_max":773.671875,"ha":808,"o":"m 208 -101 l 501 743 l 601 743 l 308 -101 l 208 -101 m 135 68 q 34 331 34 151 q 135 595 34 512 q 404 677 236 677 q 672 595 572 677 q 773 331 773 512 q 672 68 773 151 q 404 -13 572 -13 q 135 68 236 -13 m 345 489 q 329 331 329 441 q 345 174 329 222 q 404 126 362 126 q 462 174 445 126 q 479 331 479 222 q 462 489 479 441 q 404 537 445 537 q 345 489 362 537 "},"â":{"x_min":43.0625,"x_max":800.0625,"ha":842,"o":"m 287 -13 q 111 48 180 -13 q 43 225 43 111 q 120 392 43 340 q 308 444 198 444 q 498 409 418 444 q 352 525 480 525 q 208 501 294 525 l 173 626 q 427 677 298 677 q 800 361 800 677 q 775 61 800 252 l 768 0 l 538 0 l 530 76 q 287 -13 436 -13 m 412 158 q 519 193 475 158 l 511 284 q 434 308 476 308 q 364 287 391 308 q 337 236 337 266 q 358 181 337 205 q 412 158 379 158 m 405 936 l 441 936 q 514 920 487 936 q 563 868 541 904 l 654 720 l 509 720 l 423 807 l 337 720 l 193 720 l 283 868 q 332 920 305 904 q 405 936 359 936 "},"}":{"x_min":13.890625,"x_max":488.921875,"ha":503,"o":"m 75 947 q 298 875 227 947 q 345 785 329 843 q 364 678 361 727 q 368 552 368 629 q 395 454 368 475 q 488 430 422 433 l 462 273 q 387 242 406 272 q 368 136 368 212 q 364 11 368 61 q 345 -95 361 -37 q 298 -183 329 -152 q 75 -256 227 -256 q 36 -254 58 -256 l 13 -122 q 130 -79 93 -115 q 168 38 168 -44 q 161 109 168 66 q 154 173 154 152 q 312 344 154 313 q 154 516 154 375 q 161 580 154 537 q 168 651 168 623 q 130 770 168 734 q 13 812 93 805 l 36 944 q 75 947 58 947 "},"Ä":{"x_min":13.890625,"x_max":977.859375,"ha":964,"o":"m 673 0 l 618 140 l 263 140 l 211 0 l 13 0 l 248 841 l 743 841 l 977 0 l 673 0 m 547 320 l 437 598 l 331 320 l 547 320 m 548 1081 q 622 1108 573 1108 q 696 1081 670 1108 q 722 1013 722 1054 q 697 945 722 972 q 622 919 672 919 q 547 945 572 919 q 523 1013 523 972 q 548 1081 523 1054 m 294 1081 q 368 1108 319 1108 q 442 1081 416 1108 q 468 1013 468 1054 q 443 945 468 972 q 368 919 418 919 q 293 945 318 919 q 269 1013 269 972 q 294 1081 269 1054 "},"ř":{"x_min":27.78125,"x_max":612.546875,"ha":613,"o":"m 336 568 q 518 677 409 677 q 612 652 569 677 l 579 425 q 454 463 523 463 q 363 408 387 463 q 345 341 350 373 l 319 0 l 69 0 l 27 658 l 301 658 l 336 568 m 334 720 l 298 720 q 225 736 252 720 q 176 788 198 752 l 86 936 l 230 936 l 316 850 l 402 936 l 547 936 l 456 788 q 407 736 434 752 q 334 720 380 720 "},"¸":{"x_min":69.453125,"x_max":344.46875,"ha":372,"o":"m 244 -202 q 167 -254 212 -254 q 95 -228 122 -254 q 69 -159 69 -202 q 119 -86 69 -115 l 200 -38 l 344 -38 l 244 -202 "},"a":{"x_min":34.71875,"x_max":791.734375,"ha":833,"o":"m 279 -13 q 103 48 172 -13 q 34 225 34 111 q 112 392 34 340 q 300 444 190 444 q 490 409 409 444 q 344 525 472 525 q 200 501 286 525 l 165 626 q 419 677 290 677 q 791 361 791 677 q 766 61 791 252 l 759 0 l 530 0 l 522 76 q 279 -13 427 -13 m 404 158 q 511 193 466 158 l 502 284 q 425 308 468 308 q 356 287 383 308 q 329 236 329 266 q 350 181 329 205 q 404 158 370 158 "},"—":{"x_min":0,"x_max":1147.3125,"ha":1147,"o":"m 0 343 l 0 479 l 1147 479 l 1147 343 l 0 343 "},"=":{"x_min":69.453125,"x_max":562.546875,"ha":632,"o":"m 69 229 l 69 365 l 562 365 l 562 229 l 69 229 m 69 456 l 69 593 l 562 593 l 562 456 l 69 456 "},"N":{"x_min":34.71875,"x_max":1041.75,"ha":1076,"o":"m 513 841 l 759 351 l 720 841 l 1041 841 l 972 0 l 565 0 l 331 458 l 286 0 l 104 0 l 34 841 l 513 841 "},"˚":{"x_min":69.453125,"x_max":361.140625,"ha":431,"o":"m 222 720 l 208 720 q 105 746 141 720 q 69 836 69 772 q 103 926 69 900 q 208 952 137 952 l 222 952 q 327 926 293 952 q 361 836 361 900 q 325 746 361 772 q 222 720 288 720 m 212 807 l 218 807 q 255 815 247 807 q 263 840 263 823 q 253 863 263 857 q 218 869 243 869 l 212 869 q 177 863 187 869 q 166 840 166 857 q 173 816 166 823 q 212 807 183 807 "},"ú":{"x_min":41.671875,"x_max":812.5625,"ha":854,"o":"m 304 -13 q 41 343 41 -13 q 73 658 41 438 l 343 658 l 343 358 q 433 197 343 197 q 512 341 512 197 q 512 365 512 352 l 500 658 l 812 658 l 783 0 l 548 0 l 533 127 q 526 112 530 122 q 503 78 522 102 q 461 35 484 54 q 395 1 437 16 q 304 -13 354 -13 m 448 884 q 525 936 480 936 q 597 910 570 936 q 623 841 623 884 q 573 768 623 797 l 493 720 l 348 720 l 448 884 "},"2":{"x_min":41.671875,"x_max":734.78125,"ha":776,"o":"m 734 0 l 41 0 l 41 134 q 109 205 54 148 q 193 295 165 262 q 263 377 222 327 q 343 547 343 477 q 240 651 343 651 q 111 622 180 651 l 72 775 q 220 835 130 809 q 377 861 309 861 q 500 848 444 861 q 609 808 556 836 q 691 728 661 780 q 722 607 722 676 q 397 208 720 402 l 405 188 l 734 256 l 734 0 "},"ü":{"x_min":41.671875,"x_max":812.5625,"ha":854,"o":"m 304 -13 q 41 343 41 -13 q 73 658 41 438 l 343 658 l 343 358 q 433 197 343 197 q 512 341 512 197 q 512 365 512 352 l 500 658 l 812 658 l 783 0 l 548 0 l 533 127 q 526 112 530 122 q 503 78 522 102 q 461 35 484 54 q 395 1 437 16 q 304 -13 354 -13 m 480 895 q 554 922 505 922 q 628 895 602 922 q 654 827 654 868 q 629 759 654 786 q 554 733 604 733 q 479 759 504 733 q 455 827 455 786 q 480 895 455 868 m 226 895 q 300 922 251 922 q 374 895 348 922 q 400 827 400 868 q 375 759 400 786 q 300 733 350 733 q 225 759 250 733 q 201 827 201 786 q 226 895 201 868 "},"¯":{"x_min":27.78125,"x_max":468.09375,"ha":496,"o":"m 468 832 l 27 832 l 27 970 l 468 970 l 468 832 "},"Z":{"x_min":55.5625,"x_max":859.796875,"ha":874,"o":"m 55 0 l 55 148 l 366 618 l 80 552 l 108 841 l 832 841 l 832 690 l 425 198 l 859 281 l 832 0 l 55 0 "},"u":{"x_min":41.671875,"x_max":812.5625,"ha":854,"o":"m 304 -13 q 41 343 41 -13 q 73 658 41 438 l 343 658 l 343 358 q 433 197 343 197 q 512 341 512 197 q 512 365 512 352 l 500 658 l 812 658 l 783 0 l 548 0 l 533 127 q 526 112 530 122 q 503 78 522 102 q 461 35 484 54 q 395 1 437 16 q 304 -13 354 -13 "},"˜":{"x_min":69.453125,"x_max":533.375,"ha":603,"o":"m 377 897 q 320 922 345 897 q 282 948 294 948 q 265 944 270 948 l 184 897 l 69 945 l 140 1061 q 225 1112 172 1112 q 271 1095 251 1112 q 305 1066 291 1077 q 337 1065 319 1054 l 418 1112 l 533 1063 l 462 948 q 377 897 430 897 "},"Ó":{"x_min":27.78125,"x_max":1009.796875,"ha":1038,"o":"m 27 415 q 154 747 27 633 q 518 861 281 861 q 882 747 755 861 q 1009 415 1009 633 q 875 91 1009 197 q 518 -13 741 -13 q 161 91 295 -13 q 27 415 27 197 m 640 420 q 518 701 640 701 q 397 420 397 701 q 518 140 397 140 q 640 420 640 140 m 543 1070 q 620 1122 575 1122 q 691 1096 665 1122 q 718 1027 718 1070 q 668 954 718 983 l 587 907 l 443 907 l 543 1070 "},"k":{"x_min":41.671875,"x_max":804.234375,"ha":790,"o":"m 577 0 q 344 226 412 159 l 334 0 l 79 0 l 41 901 l 372 901 l 355 473 l 495 658 l 776 658 l 580 383 l 804 0 l 577 0 "},"ˇ":{"x_min":69.453125,"x_max":530.59375,"ha":600,"o":"m 318 720 l 281 720 q 209 736 236 720 q 159 788 181 752 l 69 936 l 213 936 l 300 850 l 386 936 l 530 936 l 440 788 q 391 736 418 752 q 318 720 363 720 "},"Ù":{"x_min":27.78125,"x_max":955.625,"ha":982,"o":"m 829 91 q 491 -13 704 -13 q 153 91 279 -13 q 27 423 27 197 l 27 841 l 397 841 l 397 355 q 438 158 397 193 q 491 140 458 140 q 545 157 525 140 q 573 211 565 175 q 586 355 586 266 l 586 841 l 955 841 l 955 423 q 829 91 955 197 m 344 954 q 294 1027 294 983 q 320 1096 294 1070 q 392 1122 347 1122 q 469 1070 437 1122 l 569 907 l 425 907 l 344 954 "},"¢":{"x_min":34.71875,"x_max":679.21875,"ha":679,"o":"m 630 494 q 490 515 559 515 q 375 475 420 515 q 330 346 330 434 q 369 209 330 258 q 477 161 408 161 q 629 206 545 161 l 679 125 q 458 18 593 34 l 445 -108 l 341 -108 l 322 18 q 111 117 187 34 q 34 336 34 200 q 109 551 34 473 q 301 654 184 629 l 286 758 l 459 758 l 448 661 q 627 622 554 652 l 650 612 l 630 494 "},"ß":{"x_min":34.71875,"x_max":1048.6875,"ha":1076,"o":"m 466 219 q 596 181 533 181 q 691 215 659 181 q 723 298 723 250 q 697 379 723 347 q 641 426 672 411 q 561 519 561 468 q 588 586 561 552 q 616 661 616 619 q 591 725 616 702 q 523 748 566 748 q 432 693 455 748 q 395 505 409 638 l 343 0 l 80 0 l 38 487 q 34 577 34 536 q 75 762 34 694 q 527 901 159 901 q 905 808 823 901 q 940 718 940 768 q 912 640 940 669 q 851 598 884 611 q 790 572 818 586 q 762 547 762 559 q 784 525 762 534 q 836 507 805 515 q 905 484 868 500 q 974 447 943 468 q 1027 388 1005 427 q 1048 300 1048 350 q 948 67 1048 148 q 704 -13 848 -13 q 400 86 527 -13 l 466 219 "},"é":{"x_min":34.71875,"x_max":719.5,"ha":754,"o":"m 469 159 q 613 211 554 159 l 700 106 q 647 57 677 80 q 550 10 616 34 q 404 -13 483 -13 q 140 77 247 -13 q 34 344 34 168 q 88 533 34 455 q 394 677 187 677 q 636 614 552 677 q 719 440 719 551 q 650 300 719 354 q 450 247 581 247 q 337 258 390 247 q 381 184 344 208 q 469 159 418 159 m 416 390 q 489 407 462 390 q 516 452 516 425 q 495 498 516 480 q 436 516 473 516 q 366 483 398 516 q 333 404 333 450 q 416 390 369 390 m 420 884 q 497 936 452 936 q 569 910 543 936 q 595 841 595 884 q 545 768 595 797 l 465 720 l 320 720 l 420 884 "},"s":{"x_min":34.71875,"x_max":644.5,"ha":679,"o":"m 644 208 q 591 76 644 129 q 470 4 538 23 q 337 -13 401 -13 q 225 -5 273 -13 q 144 13 177 2 q 47 58 83 37 l 34 66 l 95 193 q 236 145 179 145 q 293 193 293 145 q 256 241 293 216 q 178 288 220 266 q 100 356 136 311 q 63 462 63 402 q 144 623 63 569 q 356 677 225 677 q 487 666 423 677 q 583 644 551 655 l 613 632 l 579 491 q 444 520 500 520 q 388 477 388 520 q 415 438 388 456 q 479 401 441 419 q 554 360 516 383 q 618 297 591 337 q 644 208 644 258 "},"B":{"x_min":34.71875,"x_max":916.734375,"ha":945,"o":"m 633 841 q 901 643 901 841 q 884 564 901 600 q 844 509 866 529 q 794 475 822 488 q 726 450 751 454 q 793 422 755 443 q 855 381 832 402 q 897 321 879 359 q 916 237 916 283 q 823 55 916 111 q 527 0 730 0 l 105 0 l 34 841 l 633 841 m 490 345 l 423 345 l 402 140 l 454 140 q 545 170 511 140 q 580 251 580 201 q 554 323 580 301 q 490 345 527 345 m 477 506 q 559 534 526 506 q 593 608 593 562 q 488 698 593 698 l 458 698 l 438 506 l 477 506 "},"?":{"x_min":9.71875,"x_max":581.984375,"ha":661,"o":"m 179 672 q 48 626 116 672 l 9 779 q 291 866 127 866 q 475 816 400 866 q 581 640 581 745 q 558 536 581 591 q 422 384 520 450 l 368 220 q 293 240 337 240 q 204 220 248 240 l 147 386 q 238 484 205 436 q 275 555 272 531 l 279 577 q 246 651 277 630 q 179 672 215 672 m 209 157 q 288 186 236 186 q 368 157 341 186 q 394 86 394 129 q 368 14 394 43 q 288 -13 341 -13 q 209 14 236 -13 q 183 86 183 43 q 209 157 183 129 "},"H":{"x_min":41.671875,"x_max":1058.421875,"ha":1100,"o":"m 704 0 l 672 319 l 425 297 l 395 0 l 125 0 l 41 841 l 479 841 l 447 520 l 652 520 l 620 841 l 1058 841 l 975 0 l 704 0 "},"î":{"x_min":-12.5,"x_max":420.859375,"ha":438,"o":"m 200 936 l 208 936 q 281 920 254 936 q 330 868 308 904 l 420 720 l 276 720 l 204 807 l 131 720 l -12 720 l 77 868 q 127 920 100 904 q 200 936 154 936 m 372 638 l 395 647 l 348 0 l 86 0 l 41 647 q 210 615 120 615 q 372 638 300 615 "},"c":{"x_min":34.71875,"x_max":679.21875,"ha":679,"o":"m 679 97 q 400 -13 575 -13 q 130 79 226 -13 q 34 344 34 173 q 137 596 34 515 q 394 677 240 677 q 520 665 459 677 q 608 638 580 652 l 636 626 l 605 483 q 488 500 548 500 q 378 461 427 500 q 329 344 329 423 q 466 166 329 166 q 536 175 502 166 q 584 194 569 184 l 600 202 l 679 97 "},"¶":{"x_min":13.890625,"x_max":633.390625,"ha":661,"o":"m 372 841 l 372 0 l 279 0 l 237 420 q 74 474 134 423 q 13 628 13 525 q 75 786 13 732 q 250 841 136 841 l 372 841 m 456 0 l 456 841 l 633 841 l 550 0 l 456 0 "},"−":{"x_min":41.671875,"x_max":534.765625,"ha":576,"o":"m 41 343 l 41 479 l 534 479 l 534 343 l 41 343 "},"•":{"x_min":41.671875,"x_max":402.8125,"ha":444,"o":"m 86 535 q 222 583 131 583 q 357 535 312 583 q 402 412 402 487 q 357 289 402 337 q 222 241 312 241 q 86 289 131 241 q 41 412 41 337 q 86 535 41 487 "},"¥":{"x_min":41.671875,"x_max":779.234375,"ha":807,"o":"m 93 291 l 130 400 l 191 400 l 41 658 l 286 658 l 401 483 l 502 658 l 779 658 l 608 400 l 718 400 l 680 291 l 93 291 m 93 129 l 130 236 l 718 236 l 680 129 l 512 129 l 500 0 l 288 0 l 275 129 l 93 129 "},"(":{"x_min":13.890625,"x_max":423.640625,"ha":479,"o":"m 281 607 q 236 344 236 494 q 281 81 236 194 q 423 -188 326 -31 l 291 -266 q 93 26 173 -136 q 13 344 13 188 q 93 662 13 500 q 291 955 173 825 l 423 877 q 281 607 326 720 "},"U":{"x_min":55.5625,"x_max":983.40625,"ha":1039,"o":"m 857 91 q 519 -13 732 -13 q 181 91 306 -13 q 55 423 55 197 l 55 841 l 425 841 l 425 355 q 466 158 425 193 q 519 140 486 140 q 572 157 552 140 q 601 211 593 175 q 613 355 613 266 l 613 841 l 983 841 l 983 423 q 857 91 983 197 "},"Ñ":{"x_min":34.71875,"x_max":1041.75,"ha":1076,"o":"m 605 901 q 547 927 573 901 q 510 952 522 952 q 493 948 498 952 l 412 901 l 297 950 l 368 1065 q 452 1116 400 1116 q 499 1099 479 1116 q 533 1070 519 1082 q 565 1069 547 1058 l 645 1116 l 761 1068 l 690 952 q 605 901 658 901 m 513 841 l 759 351 l 720 841 l 1041 841 l 972 0 l 565 0 l 331 458 l 286 0 l 104 0 l 34 841 l 513 841 "},"F":{"x_min":34.71875,"x_max":716.71875,"ha":738,"o":"m 655 525 l 655 395 l 422 337 l 388 0 l 118 0 l 34 841 l 673 841 l 716 669 l 454 652 l 440 525 l 655 525 "},"ĵ":{"x_min":0,"x_max":469.484375,"ha":458,"o":"m 65 -133 q 95 -86 87 -109 q 102 -42 102 -62 q 62 647 102 -22 q 238 615 141 615 q 394 638 320 615 l 416 647 l 369 -5 q 295 -188 361 -120 q 102 -256 229 -256 l 0 -177 l 18 -169 q 65 -133 43 -156 m 220 936 l 256 936 q 329 920 302 936 q 379 868 356 904 l 469 720 l 325 720 l 238 807 l 152 720 l 8 720 l 98 868 q 147 920 120 904 q 220 936 175 936 "},":":{"x_min":26.390625,"x_max":237.515625,"ha":265,"o":"m 52 157 q 131 186 79 186 q 211 157 184 186 q 237 86 237 129 q 211 14 237 43 q 131 -13 184 -13 q 52 14 79 -13 q 26 86 26 43 q 52 157 26 129 m 52 649 q 131 677 79 677 q 211 649 184 677 q 237 577 237 620 q 211 506 237 534 q 131 477 184 477 q 52 506 79 477 q 26 577 26 534 q 52 649 26 620 "},"Ĩ":{"x_min":34.71875,"x_max":477.8125,"ha":507,"o":"m 118 0 l 34 841 l 472 841 l 388 0 l 118 0 m 330 898 q 286 914 305 898 q 252 941 266 930 q 223 943 238 952 l 145 898 l 37 944 l 104 1054 q 184 1102 134 1102 q 238 1077 215 1102 q 274 1052 262 1052 q 291 1057 286 1052 l 368 1102 l 477 1055 l 411 947 q 330 898 379 898 "},"Û":{"x_min":27.78125,"x_max":955.625,"ha":982,"o":"m 829 91 q 491 -13 704 -13 q 153 91 279 -13 q 27 423 27 197 l 27 841 l 397 841 l 397 355 q 409 211 397 266 q 438 157 418 175 q 491 140 458 140 q 544 158 525 140 q 586 355 586 193 l 586 841 l 955 841 l 955 423 q 829 91 955 197 m 469 1122 l 505 1122 q 578 1106 551 1122 q 627 1054 605 1090 l 718 907 l 573 907 l 487 993 l 401 907 l 256 907 l 347 1054 q 396 1106 369 1090 q 469 1122 423 1122 "},"*":{"x_min":27.78125,"x_max":600.046875,"ha":628,"o":"m 504 686 q 570 659 540 686 q 600 581 600 632 q 570 503 600 530 q 504 476 541 476 q 405 519 468 476 l 365 547 l 365 444 q 338 378 365 408 q 260 348 311 348 q 182 377 209 348 q 155 443 155 406 q 198 543 155 480 l 225 581 l 123 581 q 57 609 87 581 q 27 686 27 636 q 56 764 27 737 q 122 791 86 791 q 222 748 159 791 l 261 722 l 261 825 q 288 891 261 861 q 366 920 315 920 q 443 891 416 920 q 470 825 470 862 q 427 726 470 788 l 400 686 l 504 686 "},"°":{"x_min":27.78125,"x_max":541.703125,"ha":569,"o":"m 27 894 q 93 1065 27 993 q 284 1137 159 1137 q 475 1065 408 1137 q 541 894 541 993 q 476 727 541 795 q 284 658 411 658 q 92 727 156 658 q 27 894 27 795 m 375 895 q 351 956 375 930 q 284 982 327 982 q 216 956 240 982 q 193 895 193 930 q 215 836 193 861 q 284 812 238 812 q 352 836 329 812 q 375 895 375 861 "},"V":{"x_min":0,"x_max":920.90625,"ha":963,"o":"m 670 841 l 920 841 q 889 530 920 677 q 813 290 858 383 q 724 128 769 197 q 647 30 679 59 l 616 0 l 259 0 l 0 841 l 440 841 l 519 294 q 654 637 616 415 q 670 841 670 734 "},"Ŗ":{"x_min":34.71875,"x_max":982.015625,"ha":996,"o":"m 416 -327 l 416 -151 q 441 -89 416 -116 q 513 -62 466 -62 q 586 -89 561 -62 q 611 -150 611 -116 q 570 -243 611 -184 l 513 -327 l 416 -327 m 497 420 q 598 459 561 420 q 636 554 636 498 q 600 639 636 611 q 509 668 565 668 l 454 668 l 430 420 l 497 420 m 654 841 q 892 771 802 841 q 982 563 982 701 q 961 468 982 513 q 911 395 940 423 q 798 316 850 340 l 777 308 l 927 0 l 684 0 l 415 270 l 388 0 l 118 0 l 34 841 l 654 841 "},"å":{"x_min":43.0625,"x_max":800.0625,"ha":842,"o":"m 287 -13 q 111 48 180 -13 q 43 225 43 111 q 120 392 43 340 q 308 444 198 444 q 498 409 418 444 q 352 525 480 525 q 208 501 294 525 l 173 626 q 427 677 298 677 q 800 361 800 677 q 775 61 800 252 l 768 0 l 538 0 l 530 76 q 287 -13 436 -13 m 412 158 q 519 193 475 158 l 511 284 q 434 308 476 308 q 364 287 391 308 q 337 236 337 266 q 358 181 337 205 q 412 158 379 158 m 477 707 l 463 707 q 361 732 397 707 q 325 822 325 758 q 359 912 325 886 q 463 938 393 938 l 477 938 q 582 912 548 938 q 616 822 616 886 q 580 732 616 758 q 477 707 544 707 m 468 793 l 473 793 q 511 801 502 793 q 519 826 519 809 q 509 849 519 843 q 473 855 498 855 l 468 855 q 432 849 443 855 q 422 826 422 843 q 429 802 422 809 q 468 793 438 793 "}," ":{"x_min":0,"x_max":0,"ha":278},"0":{"x_min":27.78125,"x_max":883.40625,"ha":911,"o":"m 534 619 q 455 683 513 683 q 377 619 397 683 q 356 422 356 555 q 455 165 356 165 q 554 422 554 165 q 534 619 554 555 m 758 102 q 455 -13 633 -13 q 152 102 277 -13 q 27 419 27 218 q 143 741 27 620 q 455 861 258 861 q 768 741 652 861 q 883 419 883 620 q 758 102 883 218 "},"”":{"x_min":27.78125,"x_max":473.65625,"ha":501,"o":"m 27 634 l 27 825 q 54 891 27 861 q 132 920 81 920 q 210 891 183 920 q 237 825 237 862 q 194 726 237 788 l 131 634 l 27 634 m 263 634 l 263 825 q 290 891 263 861 q 368 920 318 920 q 446 891 419 920 q 473 825 473 862 q 430 726 473 788 l 368 634 l 263 634 "},"¾":{"x_min":88.890625,"x_max":1329.265625,"ha":1417,"o":"m 293 425 q 163 508 293 508 l 148 508 l 222 643 l 95 666 l 123 763 l 495 763 l 395 591 q 497 494 466 568 q 509 427 509 463 q 441 281 509 340 q 276 223 373 223 q 179 239 226 223 q 111 272 133 255 l 88 287 l 130 372 q 211 348 173 348 q 271 368 250 348 q 293 425 293 387 m 412 -120 l 761 920 l 965 920 l 612 -120 l 412 -120 m 976 531 l 1300 531 l 1272 258 l 1329 258 l 1312 133 l 1259 133 l 1245 0 l 1094 0 l 1080 133 l 845 133 l 852 258 l 976 531 m 1054 405 l 984 258 l 1068 258 l 1054 405 "},"@":{"x_min":69.453125,"x_max":1129.25,"ha":1199,"o":"m 600 -215 q 204 -73 338 -215 q 69 283 69 68 q 197 600 69 454 q 363 714 258 670 q 600 758 468 758 q 837 714 732 758 q 1004 600 943 670 q 1129 283 1129 452 q 1056 75 1129 151 q 883 -1 983 -1 q 676 105 761 -1 q 653 82 668 95 q 587 46 638 69 q 466 23 536 23 q 341 71 395 23 q 287 202 287 119 q 345 328 287 284 q 494 372 404 372 q 585 361 544 372 q 641 338 626 350 l 658 329 q 618 420 654 395 q 513 444 581 444 q 436 436 477 444 l 422 433 l 408 516 l 430 525 q 597 552 504 552 q 887 309 887 552 q 897 166 887 198 q 934 134 907 134 q 998 176 976 134 q 1020 281 1020 218 q 995 409 1020 344 q 920 529 969 473 q 787 620 870 586 q 600 655 704 655 q 413 620 497 655 q 280 530 330 586 q 180 279 180 415 q 287 -2 180 108 q 600 -113 394 -113 l 600 -215 m 573 154 q 663 193 630 154 l 662 241 q 596 270 633 270 q 538 254 559 270 q 516 214 516 237 q 533 172 516 191 q 573 154 550 154 "},"ö":{"x_min":34.71875,"x_max":773.671875,"ha":808,"o":"m 135 68 q 34 331 34 151 q 135 595 34 512 q 404 677 236 677 q 672 595 572 677 q 773 331 773 512 q 672 68 773 151 q 404 -13 572 -13 q 135 68 236 -13 m 345 489 q 329 331 329 441 q 345 174 329 222 q 404 126 362 126 q 462 174 445 126 q 479 331 479 222 q 462 489 479 441 q 404 537 445 537 q 345 489 362 537 m 458 895 q 531 922 483 922 q 606 895 580 922 q 632 827 632 868 q 606 759 632 786 q 531 733 581 733 q 457 759 481 733 q 433 827 433 786 q 458 895 433 868 m 204 895 q 277 922 229 922 q 352 895 326 922 q 377 827 377 868 q 352 759 377 786 q 277 733 327 733 q 203 759 227 733 q 179 827 179 786 q 204 895 179 868 "},"i":{"x_min":41.671875,"x_max":395.859375,"ha":438,"o":"m 372 638 l 395 647 l 348 0 l 86 0 l 41 647 q 210 615 120 615 q 372 638 300 615 m 218 676 q 101 718 148 676 q 54 827 54 759 q 100 935 54 894 q 217 976 147 976 q 334 934 287 976 q 381 826 381 893 q 334 718 381 759 q 218 676 287 676 "},"Õ":{"x_min":27.78125,"x_max":1009.796875,"ha":1038,"o":"m 27 415 q 154 747 27 633 q 518 861 281 861 q 882 747 755 861 q 1009 415 1009 633 q 875 91 1009 197 q 518 -13 741 -13 q 161 91 295 -13 q 27 415 27 197 m 640 420 q 518 701 640 701 q 397 420 397 701 q 518 140 397 140 q 640 420 640 140 m 611 897 q 553 922 579 897 q 516 948 527 948 q 498 944 504 948 l 418 897 l 302 945 l 373 1061 q 458 1112 405 1112 q 504 1095 484 1112 q 538 1066 525 1077 q 570 1065 552 1054 l 651 1112 l 766 1063 l 695 948 q 611 897 663 897 "},"þ":{"x_min":41.671875,"x_max":795.890625,"ha":831,"o":"m 365 619 q 421 655 377 633 q 514 677 465 677 q 609 662 563 677 q 697 613 654 647 q 768 509 741 579 q 795 344 795 440 q 716 77 795 169 q 510 -13 637 -13 q 311 76 383 -13 l 293 -237 l 55 -237 l 41 901 l 358 901 l 347 597 q 365 619 352 605 m 426 491 q 334 325 334 491 q 356 222 334 268 q 418 177 377 177 q 479 208 458 177 q 504 266 500 238 q 508 325 508 294 q 426 491 508 491 "},"]":{"x_min":41.671875,"x_max":356.96875,"ha":399,"o":"m 356 920 l 356 -237 l 43 -237 l 43 -79 l 158 -79 l 158 762 l 41 762 l 43 920 l 356 920 "},"m":{"x_min":41.671875,"x_max":1263.984375,"ha":1306,"o":"m 1043 677 q 1209 588 1155 677 q 1263 375 1263 500 q 1232 0 1263 251 l 988 0 l 958 322 q 936 433 950 405 q 888 461 922 461 q 800 320 809 461 l 776 0 l 529 0 l 498 322 q 476 433 490 405 q 429 461 462 461 q 340 320 347 461 l 326 0 l 70 0 l 41 658 l 355 658 l 350 526 q 357 542 352 531 q 382 579 362 552 q 427 625 402 605 q 496 661 452 644 q 590 677 540 677 q 721 626 670 677 q 787 512 772 575 q 823 568 808 547 q 869 618 838 588 q 1043 677 932 677 "},"8":{"x_min":38.890625,"x_max":798.671875,"ha":821,"o":"m 212 423 q 76 643 76 538 q 167 804 76 747 q 425 861 258 861 q 680 810 593 861 q 768 668 768 759 q 734 563 768 609 q 626 470 701 516 q 798 243 798 362 q 692 54 798 123 q 410 -13 586 -13 q 136 43 234 -13 q 38 218 38 101 q 212 423 38 336 m 241 231 q 269 172 241 195 q 336 150 297 150 q 397 173 375 150 q 420 224 420 197 q 400 272 420 251 q 331 327 379 294 q 241 231 241 279 m 569 634 q 495 698 569 698 q 440 680 459 698 q 420 631 420 662 q 491 550 420 600 q 569 634 569 588 "},"R":{"x_min":34.71875,"x_max":982.015625,"ha":996,"o":"m 497 420 q 598 459 561 420 q 636 554 636 498 q 600 639 636 611 q 509 668 565 668 l 454 668 l 430 420 l 497 420 m 654 841 q 892 771 802 841 q 982 563 982 701 q 961 468 982 513 q 911 395 940 423 q 798 316 850 340 l 777 308 l 927 0 l 684 0 l 415 270 l 388 0 l 118 0 l 34 841 l 654 841 "},"á":{"x_min":43.0625,"x_max":800.0625,"ha":842,"o":"m 287 -13 q 111 48 180 -13 q 43 225 43 111 q 120 392 43 340 q 308 444 198 444 q 498 409 418 444 q 352 525 480 525 q 208 501 294 525 l 173 626 q 427 677 298 677 q 800 361 800 677 q 775 61 800 252 l 768 0 l 538 0 l 530 76 q 287 -13 436 -13 m 412 158 q 519 193 475 158 l 511 284 q 434 308 476 308 q 364 287 391 308 q 337 236 337 266 q 358 181 337 205 q 412 158 379 158 m 437 884 q 514 936 469 936 q 586 910 559 936 q 612 841 612 884 q 562 768 612 797 l 481 720 l 337 720 l 437 884 "},"×":{"x_min":41.671875,"x_max":487.53125,"ha":529,"o":"m 41 537 l 137 633 l 263 506 l 390 634 l 487 537 l 359 411 l 487 284 l 390 187 l 263 313 l 137 188 l 41 284 l 166 411 l 41 537 "},"o":{"x_min":34.71875,"x_max":773.671875,"ha":808,"o":"m 135 68 q 34 331 34 151 q 135 595 34 512 q 404 677 236 677 q 672 595 572 677 q 773 331 773 512 q 672 68 773 151 q 404 -13 572 -13 q 135 68 236 -13 m 345 489 q 329 331 329 441 q 345 174 329 222 q 404 126 362 126 q 462 174 445 126 q 479 331 479 222 q 462 489 479 441 q 404 537 445 537 q 345 489 362 537 "},"5":{"x_min":41.671875,"x_max":702.828125,"ha":731,"o":"m 702 295 q 593 70 702 155 q 334 -13 484 -13 q 186 11 259 -13 q 77 61 112 36 l 41 86 l 108 222 q 231 190 179 190 q 314 220 284 190 q 344 300 344 250 q 315 386 344 351 q 247 438 287 420 q 100 486 165 479 l 70 490 l 172 841 l 698 841 l 654 687 l 441 612 l 441 597 q 630 483 559 559 q 681 402 659 452 q 702 295 702 352 "},"ħ":{"x_min":-26.390625,"x_max":798.671875,"ha":832,"o":"m 584 677 q 713 631 663 677 q 781 519 763 584 q 798 352 798 454 q 766 0 798 251 l 523 0 l 493 322 q 470 433 484 405 q 423 461 456 461 q 334 320 341 461 l 320 0 l 65 0 l 27 901 l 358 901 l 344 540 q 491 663 388 629 q 584 677 534 677 m 413 658 l -26 658 l -26 797 l 413 797 l 413 658 "},"õ":{"x_min":34.71875,"x_max":773.671875,"ha":808,"o":"m 135 68 q 34 331 34 151 q 135 595 34 512 q 404 677 236 677 q 672 595 572 677 q 773 331 773 512 q 672 68 773 151 q 404 -13 572 -13 q 135 68 236 -13 m 345 489 q 329 331 329 441 q 345 174 329 222 q 404 126 362 126 q 462 174 445 126 q 479 331 479 222 q 462 489 479 441 q 404 537 445 537 q 345 489 362 537 m 461 716 q 403 742 429 716 q 366 768 377 768 q 348 763 354 768 l 268 716 l 152 765 l 223 880 q 308 932 255 932 q 354 914 334 932 q 388 885 375 897 q 420 884 402 873 l 501 932 l 616 883 l 545 768 q 461 716 513 716 "},"7":{"x_min":5.5625,"x_max":657,"ha":656,"o":"m 657 841 l 657 609 l 348 0 l 77 0 l 277 612 l 19 570 l 5 841 l 657 841 "},"K":{"x_min":34.71875,"x_max":963.96875,"ha":950,"o":"m 415 268 l 388 0 l 118 0 l 34 841 l 472 841 l 447 591 l 673 841 l 916 841 l 682 481 l 963 0 l 691 0 q 415 268 497 187 "},",":{"x_min":27.78125,"x_max":237.515625,"ha":265,"o":"m 27 -104 l 27 86 q 54 152 27 122 q 132 181 81 181 q 210 152 183 181 q 237 86 237 123 q 194 -12 237 50 l 131 -104 l 27 -104 "},"d":{"x_min":34.71875,"x_max":788.953125,"ha":831,"o":"m 34 344 q 61 509 34 440 q 133 613 88 579 q 315 677 215 677 q 407 657 365 677 q 466 616 450 637 l 483 597 l 472 901 l 788 901 l 751 0 l 543 0 l 519 90 q 314 -13 436 -12 q 113 77 193 -13 q 34 344 34 169 m 404 491 q 322 325 322 491 q 326 266 322 294 q 351 208 330 238 q 412 177 372 177 q 474 222 452 177 q 495 325 495 268 q 404 491 495 491 "},"¨":{"x_min":27.78125,"x_max":480.59375,"ha":508,"o":"m 306 1061 q 380 1088 331 1088 q 454 1061 429 1088 q 480 993 480 1034 q 455 926 480 952 q 380 900 430 900 q 306 926 330 900 q 281 993 281 952 q 306 1061 281 1034 m 52 1061 q 126 1088 77 1088 q 200 1061 175 1088 q 226 993 226 1034 q 201 926 226 952 q 126 900 176 900 q 52 926 76 900 q 27 993 27 952 q 52 1061 27 1034 "},"Ô":{"x_min":27.78125,"x_max":1009.796875,"ha":1038,"o":"m 27 415 q 154 747 27 633 q 518 861 281 861 q 882 747 755 861 q 1009 415 1009 633 q 875 91 1009 197 q 518 -13 741 -13 q 161 91 295 -13 q 27 415 27 197 m 640 420 q 518 701 640 701 q 397 420 397 701 q 518 140 397 140 q 640 420 640 140 m 504 1122 l 540 1122 q 613 1106 586 1122 q 662 1054 640 1090 l 752 907 l 608 907 l 522 993 l 436 907 l 291 907 l 381 1054 q 431 1106 404 1090 q 504 1122 458 1122 m 504 1122 q 431 1106 458 1122 q 381 1054 404 1090 l 291 907 l 436 907 l 522 993 l 608 907 l 752 907 l 662 1054 q 613 1106 640 1090 q 540 1122 586 1122 l 504 1122 "},"E":{"x_min":55.5625,"x_max":759.78125,"ha":781,"o":"m 450 323 q 477 209 450 238 q 547 179 505 179 q 679 201 612 179 l 700 208 l 759 88 q 722 60 747 77 q 610 14 697 43 q 431 -13 523 -13 q 276 12 338 -13 q 180 74 213 38 q 126 168 147 109 q 99 269 105 227 q 88 373 93 311 l 55 841 l 680 841 l 719 675 l 483 654 l 469 519 l 655 519 l 683 388 l 450 330 l 450 323 "},"Y":{"x_min":-41.671875,"x_max":890.34375,"ha":849,"o":"m 288 0 l 252 359 l -41 841 l 300 841 l 425 554 l 548 841 l 890 841 l 595 359 l 559 0 l 288 0 "},"\"":{"x_min":13.890625,"x_max":501.421875,"ha":515,"o":"m 13 812 q 40 884 13 855 q 119 912 66 912 q 198 884 172 912 q 225 812 225 855 l 220 780 l 172 579 l 66 579 l 18 780 q 13 812 13 797 m 290 812 q 316 884 290 855 q 395 912 343 912 q 475 884 448 912 q 501 812 501 855 l 497 780 l 448 579 l 343 579 l 294 780 q 290 812 290 797 "},"‹":{"x_min":1.390625,"x_max":308.359375,"ha":329,"o":"m 308 566 l 198 322 l 308 77 l 154 77 l 1 322 l 154 566 l 308 566 "},"ê":{"x_min":34.71875,"x_max":719.5,"ha":754,"o":"m 469 159 q 613 211 554 159 l 700 106 q 647 57 677 80 q 550 10 616 34 q 404 -13 483 -13 q 140 77 247 -13 q 34 344 34 168 q 88 533 34 455 q 394 677 187 677 q 636 614 552 677 q 719 440 719 551 q 650 300 719 354 q 450 247 581 247 q 337 258 390 247 q 381 184 344 208 q 469 159 418 159 m 416 390 q 489 407 462 390 q 516 452 516 425 q 495 498 516 480 q 436 516 473 516 q 366 483 398 516 q 333 404 333 450 q 416 390 369 390 m 370 936 l 406 936 q 479 920 452 936 q 529 868 506 904 l 619 720 l 475 720 l 388 807 l 302 720 l 158 720 l 248 868 q 297 920 270 904 q 370 936 325 936 "},"Ï":{"x_min":27.78125,"x_max":480.59375,"ha":507,"o":"m 118 0 l 34 841 l 472 841 l 388 0 l 118 0 m 306 1081 q 380 1108 331 1108 q 454 1081 429 1108 q 480 1013 480 1054 q 455 945 480 972 q 380 919 430 919 q 306 945 330 919 q 281 1013 281 972 q 306 1081 281 1054 m 52 1081 q 126 1108 77 1108 q 200 1081 175 1108 q 226 1013 226 1054 q 201 945 226 972 q 126 919 176 919 q 52 945 76 919 q 27 1013 27 972 q 52 1081 27 1054 "},"„":{"x_min":27.78125,"x_max":477.8125,"ha":506,"o":"m 27 -104 l 27 86 q 54 152 27 122 q 132 181 81 181 q 210 152 183 181 q 237 86 237 123 q 194 -12 237 50 l 131 -104 l 27 -104 m 268 -104 l 268 86 q 295 152 268 122 q 372 181 322 181 q 450 152 423 181 q 477 86 477 123 q 434 -12 477 50 l 372 -104 l 268 -104 "},"Â":{"x_min":13.890625,"x_max":977.859375,"ha":964,"o":"m 673 0 l 618 140 l 263 140 l 211 0 l 13 0 l 248 841 l 743 841 l 977 0 l 673 0 m 547 320 l 437 598 l 331 320 l 547 320 m 477 1122 l 513 1122 q 586 1106 559 1122 q 636 1054 613 1090 l 726 907 l 581 907 l 495 993 l 409 907 l 265 907 l 355 1054 q 404 1106 377 1090 q 477 1122 431 1122 "},"ķ":{"x_min":41.671875,"x_max":804.234375,"ha":790,"o":"m 577 0 q 344 226 412 159 l 334 0 l 79 0 l 41 901 l 372 901 l 355 473 l 495 658 l 776 658 l 580 383 l 804 0 l 577 0 m 702 -202 q 625 -254 670 -254 q 554 -228 580 -254 q 527 -159 527 -202 q 577 -86 527 -115 l 658 -38 l 802 -38 l 702 -202 "},"Í":{"x_min":34.71875,"x_max":472.265625,"ha":507,"o":"m 118 0 l 34 841 l 472 841 l 388 0 l 118 0 m 244 1070 q 321 1122 276 1122 q 393 1096 366 1122 q 419 1027 419 1070 q 369 954 419 983 l 288 907 l 144 907 l 244 1070 "},"´":{"x_min":106.953125,"x_max":381.96875,"ha":457,"o":"m 206 1084 q 284 1136 238 1136 q 355 1110 329 1136 q 381 1041 381 1084 q 331 968 381 997 l 251 920 l 106 920 l 206 1084 "},"ì":{"x_min":41.671875,"x_max":395.859375,"ha":438,"o":"m 372 638 l 395 647 l 348 0 l 86 0 l 41 647 q 210 615 120 615 q 372 638 300 615 m 106 768 q 56 841 56 797 q 83 910 56 884 q 154 936 109 936 q 231 884 200 936 l 331 720 l 187 720 l 106 768 "},"±":{"x_min":41.671875,"x_max":534.765625,"ha":576,"o":"m 41 441 l 41 577 l 215 577 l 215 741 l 359 741 l 359 577 l 534 577 l 534 441 l 359 441 l 359 276 l 215 276 l 215 441 l 41 441 m 41 83 l 41 205 l 534 205 l 534 83 l 41 83 "},"Ú":{"x_min":27.78125,"x_max":955.625,"ha":982,"o":"m 829 91 q 491 -13 704 -13 q 153 91 279 -13 q 27 423 27 197 l 27 841 l 397 841 l 397 355 q 409 211 397 266 q 438 157 418 175 q 491 140 458 140 q 544 158 525 140 q 586 355 586 193 l 586 841 l 955 841 l 955 423 q 829 91 955 197 m 511 1070 q 588 1122 543 1122 q 659 1096 633 1122 q 686 1027 686 1070 q 636 954 686 983 l 555 907 l 411 907 l 511 1070 "},"|":{"x_min":27.78125,"x_max":209.734375,"ha":238,"o":"m 27 -237 l 27 947 l 209 947 l 209 -237 l 27 -237 "},"§":{"x_min":69.453125,"x_max":912.578125,"ha":982,"o":"m 763 205 q 636 41 734 97 q 432 -13 538 -13 q 239 11 326 -13 q 111 63 152 37 l 69 88 l 129 208 q 309 159 229 159 q 390 211 390 159 q 357 265 390 240 q 277 315 325 291 q 183 370 230 338 q 103 457 136 401 q 70 576 70 513 q 84 676 70 638 l 763 205 m 223 676 q 348 814 255 768 q 543 861 441 861 q 720 840 644 861 q 827 798 795 819 l 861 777 l 807 659 q 664 690 736 690 q 593 636 593 690 q 625 583 593 607 q 705 538 658 559 q 800 488 752 516 q 879 408 847 459 q 912 298 912 356 q 902 205 912 240 l 223 676 "},"Ý":{"x_min":-41.671875,"x_max":890.34375,"ha":889,"o":"m 288 0 l 252 359 l -41 841 l 300 841 l 425 554 l 548 841 l 890 841 l 595 359 l 559 0 l 288 0 m 458 1070 q 535 1122 490 1122 q 607 1096 580 1122 q 633 1027 633 1070 q 583 954 633 983 l 502 907 l 358 907 l 458 1070 "},"b":{"x_min":41.671875,"x_max":795.890625,"ha":831,"o":"m 365 619 q 421 655 377 633 q 514 677 465 677 q 609 662 563 677 q 697 613 654 647 q 768 509 741 579 q 795 344 795 440 q 716 77 795 169 q 513 -13 637 -13 q 313 86 390 -13 q 311 90 312 88 l 287 0 l 79 0 l 41 901 l 358 901 l 347 597 q 365 619 352 605 m 426 491 q 334 325 334 491 q 356 222 334 268 q 418 177 377 177 q 479 208 458 177 q 504 266 500 238 q 508 325 508 294 q 426 491 508 491 "},"q":{"x_min":34.71875,"x_max":815.34375,"ha":857,"o":"m 501 580 l 516 658 l 815 658 l 775 -237 l 537 -237 l 519 90 q 391 -2 475 23 q 319 -13 356 -13 q 113 77 193 -13 q 34 344 34 169 q 61 509 34 440 q 133 613 88 579 q 320 677 215 677 q 501 580 425 677 m 404 490 q 322 323 322 490 q 348 213 322 250 q 415 176 375 176 q 475 220 455 176 q 495 323 495 265 q 404 490 495 490 "},"Ö":{"x_min":27.78125,"x_max":1009.796875,"ha":1038,"o":"m 27 415 q 154 747 27 633 q 518 861 281 861 q 882 747 755 861 q 1009 415 1009 633 q 875 91 1009 197 q 518 -13 741 -13 q 161 91 295 -13 q 27 415 27 197 m 640 420 q 518 701 640 701 q 397 420 397 701 q 518 140 397 140 q 640 420 640 140 m 573 1081 q 647 1108 598 1108 q 721 1081 695 1108 q 747 1013 747 1054 q 722 945 747 972 q 647 919 697 919 q 572 945 597 919 q 548 1013 548 972 q 573 1081 548 1054 m 319 1081 q 393 1108 344 1108 q 467 1081 441 1108 q 493 1013 493 1054 q 468 945 493 972 q 393 919 443 919 q 318 945 343 919 q 294 1013 294 972 q 319 1081 294 1054 "},"z":{"x_min":41.671875,"x_max":675.046875,"ha":717,"o":"m 47 0 l 47 116 l 304 475 l 41 420 l 76 658 l 675 658 l 675 534 l 433 161 l 670 233 l 670 0 l 47 0 "},"Ř":{"x_min":34.71875,"x_max":982.015625,"ha":996,"o":"m 497 420 q 598 459 561 420 q 636 554 636 498 q 600 639 636 611 q 509 668 565 668 l 454 668 l 430 420 l 497 420 m 654 841 q 892 771 802 841 q 982 563 982 701 q 961 468 982 513 q 911 395 940 423 q 798 316 850 340 l 777 308 l 927 0 l 684 0 l 415 270 l 388 0 l 118 0 l 34 841 l 654 841 m 525 907 l 488 907 q 416 922 443 907 q 366 975 388 938 l 276 1122 l 420 1122 l 506 1036 l 593 1122 l 737 1122 l 647 975 q 597 922 625 938 q 525 907 570 907 "},"ã":{"x_min":43.0625,"x_max":800.0625,"ha":842,"o":"m 287 -13 q 111 48 180 -13 q 43 225 43 111 q 120 392 43 340 q 308 444 198 444 q 498 409 418 444 q 352 525 480 525 q 208 501 294 525 l 173 626 q 427 677 298 677 q 800 361 800 677 q 775 61 800 252 l 768 0 l 538 0 l 530 76 q 287 -13 436 -13 m 412 158 q 519 193 475 158 l 511 284 q 434 308 476 308 q 364 287 391 308 q 337 236 337 266 q 358 181 337 205 q 412 158 379 158 m 525 716 q 467 742 493 716 q 429 768 441 768 q 412 763 418 768 l 331 716 l 216 765 l 287 880 q 372 932 319 932 q 418 914 398 932 q 452 885 438 897 q 484 884 466 873 l 565 932 l 680 883 l 609 768 q 525 716 577 716 "},"æ":{"x_min":27.78125,"x_max":1191.765625,"ha":1226,"o":"m 866 679 q 1108 616 1025 679 q 1191 441 1191 552 q 1123 302 1191 355 q 922 248 1054 248 q 825 256 868 248 l 809 259 q 975 147 818 147 q 1054 158 1018 147 q 1108 180 1091 169 l 1123 190 l 1184 111 q 1138 68 1169 91 q 1075 27 1108 44 q 876 -12 991 -12 q 601 88 702 -12 q 313 -13 475 -13 q 109 46 191 -13 q 27 218 27 106 q 101 386 27 329 q 291 444 175 444 q 411 429 356 444 q 486 401 465 413 l 506 388 q 454 506 502 475 q 316 537 405 537 q 218 527 272 537 l 200 523 l 183 634 l 212 644 q 302 666 241 655 q 426 677 362 677 q 662 629 573 677 q 866 679 752 679 m 322 236 q 343 181 322 205 q 398 158 363 158 q 463 170 433 158 q 505 194 493 181 l 518 205 l 512 272 q 425 308 473 308 q 349 287 376 308 q 322 236 322 266 m 988 454 q 967 500 988 481 q 908 518 945 518 q 838 484 870 518 q 805 405 805 451 q 885 391 836 391 q 961 409 934 391 q 988 454 988 426 "},"®":{"x_min":20.828125,"x_max":791.734375,"ha":813,"o":"m 712 531 q 633 734 712 648 q 407 820 554 820 q 181 734 261 820 q 101 532 101 648 q 178 334 101 416 q 406 252 255 252 q 635 334 558 252 q 712 531 712 415 m 234 864 q 406 897 311 897 q 579 864 502 897 q 700 780 655 832 q 791 547 791 675 q 695 281 791 386 q 407 177 598 177 q 118 281 216 177 q 20 547 20 386 q 113 780 20 673 q 234 864 158 832 m 415 636 l 388 636 l 379 527 l 411 527 q 454 545 437 527 q 470 586 470 562 q 415 636 470 636 m 625 590 q 600 525 625 554 q 559 488 575 495 q 534 476 544 480 l 601 338 l 493 338 l 372 459 l 361 338 l 240 338 l 204 712 l 480 712 q 586 682 547 712 q 625 590 625 652 "},"ĩ":{"x_min":-13.890625,"x_max":450.03125,"ha":438,"o":"m 372 638 l 395 647 l 348 0 l 86 0 l 41 647 q 210 615 120 615 q 372 638 300 615 m 294 716 q 236 742 262 716 q 199 768 211 768 q 181 763 187 768 l 101 716 l -13 765 l 56 880 q 141 932 88 932 q 188 914 168 932 q 222 885 208 897 q 254 884 236 873 l 334 932 l 450 883 l 379 768 q 294 716 347 716 "},"É":{"x_min":48.609375,"x_max":752.84375,"ha":774,"o":"m 405 -13 q 269 12 331 -13 q 173 74 206 38 q 119 168 140 109 q 92 269 98 227 q 81 373 86 311 l 48 841 l 673 841 l 712 675 l 476 654 l 462 519 l 648 519 l 676 388 l 443 330 l 443 323 q 470 209 443 238 q 558 179 498 179 q 693 208 618 179 l 752 88 l 738 77 q 632 22 707 52 q 536 -3 594 6 q 405 -13 479 -13 m 365 1070 q 442 1122 397 1122 q 513 1096 487 1122 q 540 1027 540 1070 q 490 954 540 983 l 409 907 l 265 907 l 365 1070 "},"ŀ":{"x_min":41.671875,"x_max":607,"ha":565,"o":"m 372 901 l 334 0 l 79 0 l 41 901 l 372 901 m 422 606 q 501 634 448 634 q 580 606 554 634 q 607 534 607 577 q 580 463 607 491 q 501 434 554 434 q 422 463 448 434 q 395 534 395 491 q 422 606 395 577 "},"~":{"x_min":41.671875,"x_max":723.671875,"ha":765,"o":"m 515 408 q 620 462 588 408 l 723 402 q 516 237 662 237 q 383 263 459 237 l 381 436 q 515 408 462 408 m 251 291 q 144 237 176 291 l 41 295 q 250 462 102 462 q 381 436 297 462 l 383 263 q 251 291 293 291 "},"³":{"x_min":33.34375,"x_max":448.640625,"ha":471,"o":"m 236 566 q 108 648 236 648 l 93 648 l 166 782 l 40 804 l 68 901 l 436 901 l 337 730 q 436 636 408 707 q 448 569 448 605 q 381 425 448 481 q 219 368 313 368 q 124 384 170 368 q 55 416 77 400 l 33 431 l 75 515 q 152 491 113 491 q 236 566 236 491 "},"¡":{"x_min":29.171875,"x_max":345.859375,"ha":375,"o":"m 66 437 q 187 406 113 406 q 308 437 261 406 l 345 -177 l 29 -177 l 66 437 m 266 506 q 187 477 240 477 q 108 506 134 477 q 81 577 81 534 q 108 649 81 620 q 187 677 134 677 q 266 649 240 677 q 293 577 293 620 q 266 506 293 534 "},"[":{"x_min":41.671875,"x_max":356.96875,"ha":399,"o":"m 41 -237 l 41 920 l 356 920 l 356 762 l 240 762 l 240 -79 l 356 -79 l 355 -237 l 41 -237 "},"L":{"x_min":27.78125,"x_max":654.21875,"ha":682,"o":"m 111 0 l 27 841 l 465 841 l 402 215 l 654 229 l 575 0 l 111 0 "}," ":{"x_min":0,"x_max":0,"ha":278},"%":{"x_min":34.71875,"x_max":1197.3125,"ha":1226,"o":"m 962 359 q 908 234 908 359 q 962 109 908 109 q 1016 234 1016 109 q 962 359 1016 359 m 792 65 q 727 234 727 130 q 792 404 727 338 q 962 469 857 469 q 1132 404 1068 469 q 1197 234 1197 338 q 1132 65 1197 130 q 962 0 1068 0 q 792 65 857 0 m 269 732 q 215 606 215 732 q 269 481 215 481 q 323 606 323 481 q 269 732 323 732 m 99 437 q 34 606 34 502 q 99 776 34 711 q 269 841 163 841 q 439 776 375 841 q 504 606 504 711 q 439 437 504 502 q 269 372 375 372 q 99 437 163 372 m 372 -13 l 663 861 l 862 861 l 566 -13 l 372 -13 "},"P":{"x_min":34.71875,"x_max":982.015625,"ha":989,"o":"m 497 420 q 598 459 561 420 q 636 554 636 498 q 600 639 636 611 q 509 668 565 668 l 454 668 l 430 420 l 497 420 m 584 243 l 412 243 l 388 0 l 118 0 l 34 841 l 654 841 q 891 767 800 841 q 982 554 982 693 q 947 406 982 469 q 855 309 913 344 q 584 243 743 243 "},"À":{"x_min":13.890625,"x_max":977.859375,"ha":964,"o":"m 673 0 l 618 140 l 263 140 l 211 0 l 13 0 l 248 841 l 743 841 l 977 0 l 673 0 m 547 320 l 437 598 l 331 320 l 547 320 m 340 954 q 290 1027 290 983 q 316 1096 290 1070 q 388 1122 343 1122 q 465 1070 433 1122 l 565 907 l 420 907 l 340 954 "},"_":{"x_min":0,"x_max":576.4375,"ha":576,"o":"m 0 -193 l 0 -56 l 576 -56 l 576 -193 l 0 -193 "},"Ŕ":{"x_min":34.71875,"x_max":982.015625,"ha":996,"o":"m 509 668 l 454 668 l 430 420 l 497 420 q 598 459 561 420 q 636 554 636 498 q 600 639 636 611 q 509 668 565 668 m 982 563 q 959 468 982 513 q 910 395 937 422 q 843 343 883 369 q 777 308 804 316 l 927 0 l 684 0 l 415 270 l 388 0 l 118 0 l 34 841 l 654 841 q 892 771 802 841 q 982 563 982 701 m 522 1084 q 599 1136 554 1136 q 670 1110 644 1136 q 697 1041 697 1084 q 647 968 697 997 l 566 920 l 422 920 l 522 1084 "},"ñ":{"x_min":41.671875,"x_max":804.234375,"ha":846,"o":"m 566 677 q 734 595 663 677 q 804 382 804 513 q 772 0 804 251 l 529 0 l 501 311 q 420 459 487 459 q 336 309 341 459 l 326 0 l 70 0 l 41 658 l 355 658 l 350 540 q 381 583 356 554 q 430 630 406 612 q 566 677 491 677 m 494 716 q 436 742 462 716 q 399 768 411 768 q 381 763 387 768 l 301 716 l 186 765 l 256 880 q 341 932 288 932 q 388 914 368 932 q 422 885 408 897 q 454 884 436 873 l 534 932 l 650 883 l 579 768 q 494 716 547 716 "},"+":{"x_min":41.671875,"x_max":534.765625,"ha":576,"o":"m 41 343 l 41 479 l 212 479 l 212 658 l 362 658 l 362 479 l 534 479 l 534 343 l 362 343 l 362 165 l 212 165 l 212 343 l 41 343 "},"‚":{"x_min":27.78125,"x_max":222.234375,"ha":250,"o":"m 27 -118 l 27 58 q 52 120 27 93 q 125 147 77 147 q 197 120 172 147 q 222 59 222 93 q 181 -33 222 25 l 125 -118 l 27 -118 "},"½":{"x_min":81.953125,"x_max":1254.265625,"ha":1345,"o":"m 1245 380 q 1041 130 1245 254 l 1047 118 l 1254 161 l 1254 0 l 819 0 l 819 84 q 958 237 893 158 q 1008 343 1008 298 q 944 408 1008 408 q 862 390 904 408 l 838 486 l 865 500 q 939 527 891 513 q 1032 540 987 540 q 1211 476 1151 540 q 1245 380 1245 438 m 216 231 l 162 651 l 88 666 l 81 763 l 434 763 l 379 231 l 216 231 m 355 -120 l 704 920 l 908 920 l 555 -120 l 355 -120 "},"Æ":{"x_min":13.890625,"x_max":1241.765625,"ha":1263,"o":"m 932 323 q 959 209 932 238 q 1027 179 987 179 q 1161 201 1094 179 l 1182 208 l 1241 88 q 1204 60 1229 77 q 1092 14 1179 43 q 905 -13 1005 -13 q 597 140 683 -13 l 263 140 l 211 0 l 13 0 l 248 841 l 1162 841 l 1201 675 l 965 654 l 951 519 l 1137 519 l 1165 388 l 932 330 l 932 323 m 547 320 l 437 598 l 331 320 l 547 320 "},"Ë":{"x_min":48.609375,"x_max":752.84375,"ha":774,"o":"m 405 -13 q 269 12 331 -13 q 173 74 206 38 q 119 168 140 109 q 92 269 98 227 q 81 373 86 311 l 48 841 l 673 841 l 712 675 l 476 654 l 462 519 l 648 519 l 676 388 l 443 330 l 443 323 q 470 209 443 238 q 558 179 498 179 q 693 208 618 179 l 752 88 l 738 77 q 632 22 707 52 q 536 -3 594 6 q 405 -13 479 -13 m 413 1081 q 487 1108 438 1108 q 561 1081 536 1108 q 587 1013 587 1054 q 562 945 587 972 q 487 919 537 919 q 413 945 437 919 q 388 1013 388 972 q 413 1081 388 1054 m 159 1081 q 233 1108 184 1108 q 307 1081 281 1108 q 333 1013 333 1054 q 308 945 333 972 q 233 919 283 919 q 159 945 183 919 q 134 1013 134 972 q 159 1081 134 1054 "},"'":{"x_min":13.890625,"x_max":225.015625,"ha":239,"o":"m 13 812 q 40 884 13 855 q 119 912 66 912 q 198 884 172 912 q 225 812 225 855 l 220 780 l 172 579 l 66 579 l 18 780 q 13 812 13 797 "},"ª":{"x_min":47.21875,"x_max":505.59375,"ha":547,"o":"m 77 384 l 77 443 l 484 443 l 484 384 l 77 384 m 195 506 q 88 545 130 506 q 47 652 47 583 q 93 752 47 720 q 208 784 140 784 q 322 763 276 784 q 234 833 311 833 q 147 819 202 833 l 126 894 q 279 925 204 925 q 505 733 505 925 q 491 551 505 659 l 486 515 l 347 515 l 341 562 q 195 506 290 506 m 225 657 q 237 625 225 638 q 280 611 250 611 q 334 632 311 611 l 329 687 q 286 701 313 701 q 241 688 258 701 q 225 657 225 676 "},"ĳ":{"x_min":41.671875,"x_max":850.0625,"ha":892,"o":"m 372 638 l 395 647 l 348 0 l 86 0 l 41 647 q 210 615 120 615 q 372 638 300 615 m 218 676 q 101 718 148 676 q 54 827 54 759 q 100 935 54 894 q 217 976 147 976 q 334 934 287 976 q 381 826 381 893 q 334 718 381 759 q 218 676 287 676 m 498 -133 q 528 -86 520 -109 q 536 -42 536 -62 q 495 647 536 -22 q 672 615 575 615 q 827 638 754 615 l 850 647 l 802 -5 q 728 -188 794 -120 q 536 -256 662 -256 l 433 -177 l 451 -169 q 498 -133 476 -156 m 672 676 q 555 718 602 676 q 508 827 508 759 q 554 935 508 894 q 671 976 601 976 q 788 934 741 976 q 836 826 836 893 q 788 718 836 759 q 672 676 741 676 "},"Œ":{"x_min":27.78125,"x_max":1343.15625,"ha":1364,"o":"m 519 861 q 694 841 613 861 l 1263 841 l 1302 675 l 1066 654 l 1052 519 l 1238 519 l 1266 388 l 1033 330 l 1033 323 q 1061 209 1033 238 q 1130 179 1088 179 q 1262 201 1195 179 l 1283 208 l 1343 88 q 1305 60 1330 77 q 1193 14 1280 43 q 991 -13 1107 -13 q 793 38 875 -13 q 519 -13 679 -13 q 161 91 295 -13 q 27 415 27 197 q 154 747 27 633 q 519 861 281 861 m 640 420 q 518 701 640 701 q 397 420 397 701 q 518 140 397 140 q 640 420 640 140 "},"ð":{"x_min":34.71875,"x_max":787.5625,"ha":822,"o":"m 565 884 q 729 659 670 791 q 787 406 787 526 q 747 195 787 287 q 621 45 708 104 q 411 -13 534 -13 q 136 66 238 -13 q 34 313 34 147 q 135 566 34 479 q 372 652 236 652 q 506 622 445 652 q 440 786 497 713 l 347 711 l 268 812 l 340 870 q 238 913 284 904 l 223 918 l 244 1030 q 455 962 355 1016 l 573 1057 l 654 957 l 565 884 m 512 494 q 425 515 473 515 q 347 465 377 515 q 318 316 318 415 q 411 104 318 104 q 486 183 454 104 q 518 388 518 262 q 512 494 518 444 "},"T":{"x_min":0,"x_max":844.515625,"ha":845,"o":"m 816 841 l 844 577 l 620 622 l 558 0 l 287 0 l 225 622 l 0 577 l 27 841 l 816 841 "},"Þ":{"x_min":41.671875,"x_max":818.125,"ha":853,"o":"m 454 766 q 725 698 633 766 q 818 463 818 630 q 722 224 818 297 q 469 151 626 151 l 326 151 l 320 0 l 79 0 l 41 901 l 358 901 l 352 766 l 454 766 m 394 609 l 345 609 l 333 309 l 394 309 q 537 456 537 309 q 497 577 537 545 q 394 609 458 609 "},"j":{"x_min":0,"x_max":416.703125,"ha":458,"o":"m 65 -133 q 95 -86 87 -109 q 102 -42 102 -62 q 62 647 102 -22 q 238 615 141 615 q 394 638 320 615 l 416 647 l 369 -5 q 295 -188 361 -120 q 102 -256 229 -256 l 0 -177 l 18 -169 q 65 -133 43 -156 m 238 676 q 122 718 169 676 q 75 827 75 759 q 121 935 75 894 q 238 976 168 976 q 355 934 308 976 q 402 826 402 893 q 355 718 402 759 q 238 676 308 676 "},"1":{"x_min":27.78125,"x_max":586.15625,"ha":642,"o":"m 241 0 l 156 663 l 38 687 l 27 841 l 586 841 l 498 0 l 241 0 "},"›":{"x_min":1.390625,"x_max":308.359375,"ha":329,"o":"m 1 77 l 111 322 l 1 566 l 155 566 l 308 322 l 155 77 l 1 77 "},"ı":{"x_min":27.78125,"x_max":381.96875,"ha":410,"o":"m 358 638 l 381 647 l 334 0 l 72 0 l 27 647 q 196 615 106 615 q 358 638 286 615 "},"ä":{"x_min":43.0625,"x_max":800.0625,"ha":842,"o":"m 287 -13 q 111 48 180 -13 q 43 225 43 111 q 120 392 43 340 q 308 444 198 444 q 498 409 418 444 q 352 525 480 525 q 208 501 294 525 l 173 626 q 427 677 298 677 q 800 361 800 677 q 775 61 800 252 l 768 0 l 538 0 l 530 76 q 287 -13 436 -13 m 412 158 q 519 193 475 158 l 511 284 q 434 308 476 308 q 364 287 391 308 q 337 236 337 266 q 358 181 337 205 q 412 158 379 158 m 508 895 q 581 922 533 922 q 656 895 630 922 q 682 827 682 868 q 657 759 682 786 q 581 733 632 733 q 507 759 531 733 q 483 827 483 786 q 508 895 483 868 m 254 895 q 327 922 279 922 q 402 895 376 922 q 427 827 427 868 q 402 759 427 786 q 327 733 377 733 q 253 759 277 733 q 229 827 229 786 q 254 895 229 868 "},"<":{"x_min":41.671875,"x_max":608.375,"ha":664,"o":"m 41 343 l 41 479 l 608 677 l 608 541 l 236 411 l 608 280 l 608 144 l 41 343 "},"£":{"x_min":27.78125,"x_max":711.171875,"ha":739,"o":"m 147 408 q 231 609 147 540 q 456 677 316 677 q 587 663 541 677 q 697 626 663 643 l 677 508 q 575 523 627 523 q 433 400 450 523 l 587 400 l 552 270 l 419 270 l 402 143 l 711 183 l 682 0 l 43 0 l 43 97 l 180 115 l 161 270 l 27 270 l 62 400 l 147 400 q 147 408 147 404 "},"¹":{"x_min":25,"x_max":368.078125,"ha":399,"o":"m 156 384 l 104 791 l 31 807 l 25 901 l 368 901 l 315 384 l 156 384 "},"t":{"x_min":13.890625,"x_max":536.15625,"ha":578,"o":"m 409 247 q 466 166 408 166 q 506 181 483 166 l 536 47 q 513 29 527 40 q 450 2 498 19 q 351 -13 402 -13 q 197 50 256 -13 q 133 215 137 115 l 120 477 l 13 477 l 30 658 l 113 658 l 108 794 l 437 861 l 427 658 l 508 658 l 525 477 l 419 477 l 409 247 "},"¬":{"x_min":41.671875,"x_max":534.765625,"ha":576,"o":"m 41 343 l 41 479 l 534 479 l 534 218 l 398 218 l 398 343 l 41 343 "},"ù":{"x_min":41.671875,"x_max":812.5625,"ha":854,"o":"m 304 -13 q 41 343 41 -13 q 73 658 41 438 l 343 658 l 343 358 q 433 197 343 197 q 512 341 512 197 q 512 365 512 352 l 500 658 l 812 658 l 783 0 l 548 0 l 533 127 q 526 112 530 122 q 503 78 522 102 q 461 35 484 54 q 395 1 437 16 q 304 -13 354 -13 m 275 768 q 225 841 225 797 q 251 910 225 884 q 322 936 277 936 q 400 884 368 936 l 500 720 l 355 720 l 275 768 "},"W":{"x_min":0,"x_max":1464,"ha":1506,"o":"m 1212 841 l 1464 841 q 1431 530 1464 677 q 1352 290 1398 383 q 1258 128 1305 197 q 1177 30 1211 59 l 1145 0 l 830 0 l 726 337 q 666 188 707 272 q 593 52 625 104 l 561 0 l 259 0 l 0 841 l 440 841 l 519 294 q 571 370 540 315 q 624 482 602 425 q 664 636 645 540 q 684 841 683 733 l 983 841 l 1062 294 q 1197 636 1159 416 q 1212 841 1212 733 "},"ï":{"x_min":-8.328125,"x_max":416.703125,"ha":438,"o":"m 243 895 q 316 922 268 922 q 391 895 365 922 q 416 827 416 868 q 391 759 416 786 q 316 733 366 733 q 242 759 266 733 q 218 827 218 786 q 243 895 218 868 m 16 895 q 90 922 41 922 q 164 895 138 922 q 190 827 190 868 q 165 759 190 786 q 90 733 140 733 q 15 759 40 733 q -8 827 -8 786 q 16 895 -8 868 m 372 638 l 395 647 l 348 0 l 86 0 l 41 647 q 210 615 120 615 q 372 638 300 615 "},">":{"x_min":55.5625,"x_max":622.265625,"ha":664,"o":"m 622 479 l 622 343 l 55 144 l 55 280 l 427 411 l 55 541 l 55 677 l 622 479 "},"v":{"x_min":-13.890625,"x_max":734.78125,"ha":763,"o":"m 391 230 q 511 658 511 390 l 734 658 q 682 326 734 469 q 572 113 632 191 q 483 11 515 38 l 468 0 l 190 0 l -13 658 l 331 658 l 391 230 "},"û":{"x_min":41.671875,"x_max":812.5625,"ha":854,"o":"m 304 -13 q 41 343 41 -13 q 73 658 41 438 l 343 658 l 343 358 q 433 197 343 197 q 512 341 512 197 q 512 365 512 352 l 500 658 l 812 658 l 783 0 l 548 0 l 533 127 q 526 112 530 122 q 503 78 522 102 q 461 35 484 54 q 395 1 437 16 q 304 -13 354 -13 m 408 936 l 444 936 q 517 920 490 936 q 566 868 544 904 l 657 720 l 512 720 l 426 807 l 340 720 l 195 720 l 286 868 q 335 920 308 904 q 408 936 362 936 "},"Ò":{"x_min":27.78125,"x_max":1009.796875,"ha":1038,"o":"m 27 415 q 154 747 27 633 q 518 861 281 861 q 882 747 755 861 q 1009 415 1009 633 q 875 91 1009 197 q 518 -13 741 -13 q 161 91 295 -13 q 27 415 27 197 m 640 420 q 518 701 640 701 q 397 420 397 701 q 518 140 397 140 q 640 420 640 140 m 362 954 q 312 1027 312 983 q 338 1096 312 1070 q 410 1122 365 1122 q 487 1070 455 1122 l 587 907 l 443 907 l 362 954 "},"&":{"x_min":0,"x_max":805.625,"ha":806,"o":"m 526 55 q 302 -13 437 -13 q 83 59 166 -13 q 0 233 0 133 q 119 434 0 355 q 75 570 75 512 q 171 742 75 684 q 400 800 268 800 q 627 758 531 800 l 613 612 q 526 630 575 630 q 444 604 477 630 q 411 530 411 579 q 509 318 411 434 q 520 418 520 370 q 516 502 520 465 l 709 502 l 736 355 l 668 355 q 633 200 659 269 q 805 90 712 137 l 750 -37 q 526 55 654 -19 m 208 235 q 236 175 208 201 q 306 150 263 150 q 377 158 348 150 q 229 291 301 216 q 208 235 208 269 "},"Ð":{"x_min":-29.171875,"x_max":932.015625,"ha":960,"o":"m -29 351 l -29 487 l 69 487 l 34 841 l 444 841 q 870 672 754 841 q 932 458 932 581 q 390 0 932 0 l 118 0 l 83 351 l -29 351 m 512 487 l 512 351 l 408 351 l 387 140 l 395 140 q 544 241 491 140 q 597 454 597 343 q 556 633 597 566 q 452 700 516 700 l 444 700 l 422 487 l 512 487 "},"I":{"x_min":34.71875,"x_max":472.265625,"ha":507,"o":"m 118 0 l 34 841 l 472 841 l 388 0 l 118 0 "},"G":{"x_min":27.78125,"x_max":888.953125,"ha":917,"o":"m 888 444 l 888 118 q 827 75 870 100 q 741 33 784 50 q 491 -13 629 -13 q 145 97 262 -13 q 27 422 27 209 q 147 747 27 634 q 481 861 268 861 q 786 791 648 861 q 833 765 818 776 l 847 754 l 786 630 q 630 658 720 658 q 400 419 400 658 q 452 226 400 295 q 591 156 505 156 q 659 170 626 156 l 627 304 l 525 304 l 552 444 l 888 444 "},"`":{"x_min":143.0625,"x_max":418.09375,"ha":457,"o":"m 193 954 q 143 1027 143 983 q 169 1096 143 1070 q 240 1122 195 1122 q 318 1070 286 1122 l 418 907 l 273 907 l 193 954 "},"·":{"x_min":41.671875,"x_max":252.796875,"ha":294,"o":"m 68 484 q 147 512 94 512 q 226 484 200 512 q 252 412 252 455 q 226 341 252 369 q 147 312 200 312 q 68 341 94 312 q 41 412 41 369 q 68 484 41 455 "},"r":{"x_min":41.671875,"x_max":626.4375,"ha":626,"o":"m 350 568 q 531 677 423 677 q 626 652 583 677 l 593 425 q 468 463 537 463 q 377 408 401 463 q 359 341 363 373 l 333 0 l 83 0 l 41 658 l 315 658 l 350 568 "},"¿":{"x_min":79.171875,"x_max":651.4375,"ha":661,"o":"m 481 -8 q 612 37 544 -8 l 651 -115 q 369 -202 533 -202 q 186 -152 261 -202 q 79 23 79 -81 q 102 127 79 72 q 238 279 140 213 l 293 443 q 368 423 323 423 q 456 443 412 423 l 513 277 q 422 179 455 227 q 386 108 388 131 l 381 86 q 414 12 383 33 q 481 -8 445 -8 m 451 506 q 372 477 425 477 q 293 506 319 477 q 266 577 266 534 q 293 649 266 620 q 372 677 319 677 q 451 649 425 677 q 477 577 477 620 q 451 506 477 534 "},"ý":{"x_min":41.671875,"x_max":812.5625,"ha":847,"o":"m 523 154 l 523 165 q 502 113 519 141 q 463 65 484 84 q 404 30 443 45 q 304 15 366 15 q 186 43 241 15 q 100 122 130 72 q 41 327 41 215 q 73 658 41 438 l 343 658 l 343 358 q 433 205 343 205 q 493 241 473 205 q 512 333 512 277 q 512 348 512 340 l 500 658 l 812 658 l 793 231 q 779 77 788 141 q 746 -53 770 13 q 683 -162 722 -120 q 415 -256 593 -256 q 180 -179 290 -256 l 168 -170 l 226 -51 q 351 -81 293 -81 q 477 -20 431 -81 q 523 154 523 41 m 448 884 q 525 936 480 936 q 597 910 570 936 q 623 841 623 884 q 573 768 623 797 l 493 720 l 348 720 l 448 884 "},"x":{"x_min":27.78125,"x_max":736.171875,"ha":750,"o":"m 300 172 q 231 0 231 90 l 27 0 q 206 348 27 187 l 44 658 l 390 658 l 468 509 q 500 566 484 522 q 515 658 515 609 l 719 658 q 566 322 719 456 l 736 0 l 391 0 l 300 172 "},"è":{"x_min":34.71875,"x_max":719.5,"ha":742,"o":"m 404 -13 q 140 77 247 -13 q 34 344 34 168 q 88 533 34 455 q 394 677 187 677 q 636 614 552 677 q 719 440 719 551 q 650 300 719 354 q 450 247 581 247 q 352 255 395 247 l 337 258 q 381 184 344 208 q 469 159 418 159 q 613 211 554 159 l 700 106 q 647 57 677 80 q 550 10 616 34 q 404 -13 483 -13 m 516 452 q 495 498 516 480 q 436 516 473 516 q 366 483 398 516 q 333 404 333 450 q 413 390 363 390 q 489 407 462 390 q 516 452 516 425 m 286 768 q 236 841 236 797 q 262 910 236 884 q 334 936 288 936 q 411 884 379 936 l 511 720 l 366 720 l 286 768 "},"º":{"x_min":41.671875,"x_max":484.765625,"ha":526,"o":"m 41 712 q 97 869 41 816 q 263 922 154 922 q 428 869 372 922 q 484 712 484 816 q 425 557 484 608 q 263 506 365 506 q 102 557 162 506 q 41 712 41 608 m 315 714 q 304 807 315 777 q 263 837 294 837 q 221 807 231 837 q 211 714 211 777 q 222 621 211 651 q 263 591 234 591 q 304 621 293 591 q 315 714 315 651 m 63 384 l 63 456 l 470 456 l 470 384 l 63 384 "},"Ń":{"x_min":34.71875,"x_max":1041.75,"ha":1076,"o":"m 513 841 l 759 351 l 720 841 l 1041 841 l 972 0 l 565 0 l 331 458 l 286 0 l 104 0 l 34 841 l 513 841 m 615 1084 q 692 1136 647 1136 q 763 1110 737 1136 q 790 1041 790 1084 q 740 968 790 997 l 659 920 l 515 920 l 615 1084 "},"Ø":{"x_min":27.78125,"x_max":1009.796875,"ha":1038,"o":"m 276 -91 l 626 930 l 726 930 l 376 -91 l 276 -91 m 27 415 q 154 747 27 633 q 518 861 281 861 q 882 747 755 861 q 1009 415 1009 633 q 875 91 1009 197 q 518 -13 741 -13 q 161 91 295 -13 q 27 415 27 197 m 640 420 q 518 701 640 701 q 397 420 397 701 q 518 140 397 140 q 640 420 640 140 "},"÷":{"x_min":41.671875,"x_max":534.765625,"ha":576,"o":"m 41 343 l 41 479 l 534 479 l 534 343 l 41 343 m 209 252 q 288 280 236 280 q 368 252 341 280 q 394 180 394 223 q 368 109 394 137 q 288 80 341 80 q 209 109 236 80 q 183 180 183 137 q 209 252 183 223 m 209 718 q 288 747 236 747 q 368 718 341 747 q 394 647 394 690 q 368 575 394 604 q 288 547 341 547 q 209 575 236 547 q 183 647 183 604 q 209 718 183 690 "},"h":{"x_min":41.671875,"x_max":812.5625,"ha":854,"o":"m 598 677 q 727 631 677 677 q 795 519 777 584 q 812 352 812 454 q 780 0 812 251 l 537 0 l 506 322 q 484 433 498 405 q 437 461 470 461 q 348 320 355 461 l 334 0 l 79 0 l 41 901 l 372 901 l 358 540 q 505 663 402 629 q 598 677 548 677 "},".":{"x_min":27.78125,"x_max":238.90625,"ha":267,"o":"m 54 157 q 133 186 80 186 q 212 157 186 186 q 238 86 238 129 q 212 14 238 43 q 133 -13 186 -13 q 54 14 80 -13 q 27 86 27 43 q 54 157 27 129 "},"ń":{"x_min":41.671875,"x_max":804.234375,"ha":846,"o":"m 566 677 q 734 595 663 677 q 804 382 804 513 q 772 0 804 251 l 529 0 l 501 311 q 420 459 487 459 q 336 309 341 459 l 326 0 l 70 0 l 41 658 l 355 658 l 350 540 q 381 583 356 554 q 430 630 406 612 q 566 677 491 677 m 452 884 q 529 936 484 936 q 601 910 575 936 q 627 841 627 884 q 577 768 627 797 l 497 720 l 352 720 l 452 884 "},";":{"x_min":26.390625,"x_max":237.515625,"ha":265,"o":"m 52 581 q 131 609 79 609 q 211 581 184 609 q 237 509 237 552 q 211 438 237 466 q 131 409 184 409 q 52 438 79 409 q 26 509 26 466 q 52 581 26 552 m 27 -104 l 27 86 q 54 152 27 122 q 132 181 81 181 q 210 152 183 181 q 237 86 237 123 q 194 -12 237 50 l 131 -104 l 27 -104 "},"f":{"x_min":27.78125,"x_max":513.9375,"ha":542,"o":"m 111 658 q 171 853 111 786 q 376 920 231 920 q 498 902 440 920 l 513 768 q 472 773 493 773 q 404 676 404 773 l 404 658 l 488 658 l 505 477 l 412 477 l 391 0 l 136 0 l 115 477 l 27 477 l 44 658 l 111 658 "},"“":{"x_min":27.78125,"x_max":473.65625,"ha":501,"o":"m 237 901 l 237 711 q 210 645 237 675 q 132 615 183 615 q 54 644 81 615 q 27 710 27 673 q 70 809 27 747 l 133 901 l 237 901 m 473 901 l 473 711 q 446 645 473 675 q 368 615 419 615 q 290 644 318 615 q 263 710 263 673 q 306 809 263 747 l 369 901 l 473 901 "},"A":{"x_min":13.890625,"x_max":977.859375,"ha":964,"o":"m 673 0 l 618 140 l 263 140 l 211 0 l 13 0 l 248 841 l 743 841 l 977 0 l 673 0 m 547 320 l 437 598 l 331 320 l 547 320 "},"6":{"x_min":41.671875,"x_max":857.015625,"ha":885,"o":"m 583 283 q 558 343 583 320 q 495 366 533 366 q 425 350 458 366 q 379 302 393 333 q 411 236 379 266 q 486 206 443 206 q 556 226 530 206 q 583 283 583 245 m 729 626 q 554 662 638 662 q 416 613 470 662 q 362 493 362 565 q 379 513 368 501 q 436 547 390 526 q 541 568 483 568 q 770 493 683 568 q 857 288 857 418 q 754 72 857 158 q 468 -13 652 -13 q 163 93 284 -13 q 41 413 41 201 q 165 743 41 625 q 461 861 288 861 q 783 773 633 861 l 729 626 "},"‘":{"x_min":27.78125,"x_max":237.515625,"ha":265,"o":"m 237 901 l 237 711 q 210 645 237 675 q 132 615 183 615 q 54 644 81 615 q 27 710 27 673 q 70 809 27 747 l 133 901 l 237 901 "},"O":{"x_min":27.78125,"x_max":1009.796875,"ha":1038,"o":"m 27 415 q 154 747 27 633 q 518 861 281 861 q 882 747 755 861 q 1009 415 1009 633 q 875 91 1009 197 q 518 -13 741 -13 q 161 91 295 -13 q 27 415 27 197 m 640 420 q 518 701 640 701 q 397 420 397 701 q 518 140 397 140 q 640 420 640 140 "},"n":{"x_min":41.671875,"x_max":804.234375,"ha":846,"o":"m 566 677 q 734 595 663 677 q 804 382 804 513 q 772 0 804 251 l 529 0 l 501 311 q 420 459 487 459 q 336 309 341 459 l 326 0 l 70 0 l 41 658 l 355 658 l 350 540 q 381 583 356 554 q 430 630 406 612 q 566 677 491 677 "},"3":{"x_min":27.78125,"x_max":694.5,"ha":736,"o":"m 351 305 q 147 437 351 437 l 122 437 l 240 650 l 38 687 l 83 841 l 673 841 l 515 569 q 534 561 522 566 q 577 536 547 556 q 631 489 608 516 q 675 414 655 462 q 694 309 694 366 q 586 78 694 170 q 325 -13 477 -13 q 172 11 247 -13 q 63 63 98 37 l 27 88 l 94 222 q 222 184 161 184 q 317 215 283 184 q 351 305 351 245 "},"9":{"x_min":27.78125,"x_max":843.125,"ha":885,"o":"m 301 563 q 326 503 301 526 q 388 480 351 480 q 459 497 426 480 q 505 544 491 513 q 473 610 505 580 q 397 640 441 640 q 327 620 354 640 q 301 563 301 601 m 155 220 q 329 184 245 184 q 468 233 413 184 q 522 354 522 281 q 505 333 516 345 q 447 300 494 320 q 343 279 401 279 q 114 354 201 279 q 27 559 27 429 q 129 775 27 688 q 416 861 231 861 q 721 753 600 861 q 843 434 843 645 q 719 104 843 222 q 423 -13 595 -13 q 101 73 251 -13 l 155 220 "},"l":{"x_min":41.671875,"x_max":372.25,"ha":414,"o":"m 372 901 l 334 0 l 79 0 l 41 901 l 372 901 "},"¤":{"x_min":45.84375,"x_max":718.109375,"ha":736,"o":"m 633 473 q 665 340 665 413 q 625 197 665 266 l 718 87 l 588 -13 l 504 86 q 381 59 444 59 q 259 86 319 59 l 175 -13 l 45 87 l 138 198 q 100 338 100 263 q 131 473 100 413 l 45 576 l 175 677 l 247 591 q 381 625 311 625 q 515 591 452 625 l 588 677 l 718 576 l 633 473 m 309 416 q 279 343 279 386 q 309 270 279 300 q 381 240 338 240 q 454 270 425 240 q 484 343 484 300 q 454 416 484 386 q 381 445 425 445 q 309 416 338 445 "},"4":{"x_min":27.78125,"x_max":794.515625,"ha":822,"o":"m 236 841 l 748 841 l 705 409 l 794 409 l 769 211 l 684 211 l 663 0 l 422 0 l 401 211 l 27 211 l 38 409 l 236 841 m 358 641 l 250 409 l 380 409 l 358 641 "},"p":{"x_min":41.671875,"x_max":822.28125,"ha":857,"o":"m 537 -13 q 408 22 459 -13 q 337 90 362 55 l 319 -237 l 81 -237 l 41 658 l 340 658 l 355 580 q 377 607 362 591 q 439 650 391 623 q 538 677 487 677 q 635 662 590 677 q 724 613 680 647 q 795 509 768 579 q 822 344 822 440 q 743 77 822 169 q 537 -13 663 -13 m 452 490 q 361 323 361 490 q 381 220 361 265 q 441 176 401 176 q 502 205 481 176 q 534 323 534 250 q 452 490 534 490 "},"à":{"x_min":43.0625,"x_max":800.0625,"ha":842,"o":"m 287 -13 q 111 48 180 -13 q 43 225 43 111 q 120 392 43 340 q 308 444 198 444 q 498 409 418 444 q 352 525 480 525 q 208 501 294 525 l 173 626 q 427 677 298 677 q 800 361 800 677 q 775 61 800 252 l 768 0 l 538 0 l 530 76 q 287 -13 436 -13 m 412 158 q 519 193 475 158 l 511 284 q 434 308 476 308 q 364 287 391 308 q 337 236 337 266 q 358 181 337 205 q 412 158 379 158 m 306 768 q 256 841 256 797 q 283 910 256 884 q 354 936 309 936 q 431 884 400 936 l 531 720 l 387 720 l 306 768 "},"Ü":{"x_min":27.78125,"x_max":955.625,"ha":982,"o":"m 829 91 q 491 -13 704 -13 q 153 91 279 -13 q 27 423 27 197 l 27 841 l 397 841 l 397 355 q 409 211 397 266 q 438 157 418 175 q 491 140 458 140 q 544 158 525 140 q 586 355 586 193 l 586 841 l 955 841 l 955 423 q 829 91 955 197 m 544 1081 q 618 1108 569 1108 q 692 1081 666 1108 q 718 1013 718 1054 q 693 945 718 972 q 618 919 668 919 q 543 945 568 919 q 519 1013 519 972 q 544 1081 519 1054 m 290 1081 q 363 1108 315 1108 q 438 1081 412 1108 q 463 1013 463 1054 q 438 945 463 972 q 363 919 413 919 q 289 945 313 919 q 265 1013 265 972 q 290 1081 265 1054 "},"ó":{"x_min":34.71875,"x_max":773.671875,"ha":808,"o":"m 135 68 q 34 331 34 151 q 135 595 34 512 q 404 677 236 677 q 672 595 572 677 q 773 331 773 512 q 672 68 773 151 q 404 -13 572 -13 q 135 68 236 -13 m 345 489 q 329 331 329 441 q 345 174 329 222 q 404 126 362 126 q 462 174 445 126 q 479 331 479 222 q 462 489 479 441 q 404 537 445 537 q 345 489 362 537 m 433 884 q 510 936 465 936 q 581 910 555 936 q 608 841 608 884 q 558 768 608 797 l 477 720 l 333 720 l 433 884 "},"ŗ":{"x_min":27.78125,"x_max":612.546875,"ha":613,"o":"m 115 -327 l 115 -151 q 140 -89 115 -116 q 212 -62 165 -62 q 284 -89 259 -62 q 309 -150 309 -116 q 269 -243 309 -184 l 212 -327 l 115 -327 m 336 568 q 518 677 409 677 q 612 652 569 677 l 579 425 q 454 463 523 463 q 363 408 387 463 q 345 341 350 373 l 319 0 l 69 0 l 27 658 l 301 658 l 336 568 "}}}
